<svg xmlns="http://www.w3.org/2000/svg" xmlns:xlink="http://www.w3.org/1999/xlink" width="600" height="400" viewBox="0 0 2400 1600">
<defs>
  <clipPath id="clip960">
    <rect x="0" y="0" width="2400" height="1600"></rect>
  </clipPath>
</defs>
<path clip-path="url(#clip960)" d="M0 1600 L2400 1600 L2400 0 L0 0  Z" fill="#ffffff" fill-rule="evenodd" fill-opacity="1"></path>
<defs>
  <clipPath id="clip961">
    <rect x="480" y="0" width="1681" height="1600"></rect>
  </clipPath>
</defs>
<path clip-path="url(#clip960)" d="M257.366 1423.18 L2352.76 1423.18 L2352.76 123.472 L257.366 123.472  Z" fill="#ffffff" fill-rule="evenodd" fill-opacity="1"></path>
<defs>
  <clipPath id="clip962">
    <rect x="257" y="123" width="2096" height="1301"></rect>
  </clipPath>
</defs>
<polyline clip-path="url(#clip962)" style="stroke:#000000; stroke-linecap:round; stroke-linejoin:round; stroke-width:2; stroke-opacity:0.1; fill:none" points="314.693,1423.18 314.693,123.472 "></polyline>
<polyline clip-path="url(#clip962)" style="stroke:#000000; stroke-linecap:round; stroke-linejoin:round; stroke-width:2; stroke-opacity:0.1; fill:none" points="808.888,1423.18 808.888,123.472 "></polyline>
<polyline clip-path="url(#clip962)" style="stroke:#000000; stroke-linecap:round; stroke-linejoin:round; stroke-width:2; stroke-opacity:0.1; fill:none" points="1303.08,1423.18 1303.08,123.472 "></polyline>
<polyline clip-path="url(#clip962)" style="stroke:#000000; stroke-linecap:round; stroke-linejoin:round; stroke-width:2; stroke-opacity:0.1; fill:none" points="1797.28,1423.18 1797.28,123.472 "></polyline>
<polyline clip-path="url(#clip962)" style="stroke:#000000; stroke-linecap:round; stroke-linejoin:round; stroke-width:2; stroke-opacity:0.1; fill:none" points="2291.48,1423.18 2291.48,123.472 "></polyline>
<polyline clip-path="url(#clip962)" style="stroke:#000000; stroke-linecap:round; stroke-linejoin:round; stroke-width:2; stroke-opacity:0.1; fill:none" points="257.366,1199.35 2352.76,1199.35 "></polyline>
<polyline clip-path="url(#clip962)" style="stroke:#000000; stroke-linecap:round; stroke-linejoin:round; stroke-width:2; stroke-opacity:0.1; fill:none" points="257.366,945.203 2352.76,945.203 "></polyline>
<polyline clip-path="url(#clip962)" style="stroke:#000000; stroke-linecap:round; stroke-linejoin:round; stroke-width:2; stroke-opacity:0.1; fill:none" points="257.366,691.053 2352.76,691.053 "></polyline>
<polyline clip-path="url(#clip962)" style="stroke:#000000; stroke-linecap:round; stroke-linejoin:round; stroke-width:2; stroke-opacity:0.1; fill:none" points="257.366,436.904 2352.76,436.904 "></polyline>
<polyline clip-path="url(#clip962)" style="stroke:#000000; stroke-linecap:round; stroke-linejoin:round; stroke-width:2; stroke-opacity:0.1; fill:none" points="257.366,182.755 2352.76,182.755 "></polyline>
<polyline clip-path="url(#clip960)" style="stroke:#000000; stroke-linecap:round; stroke-linejoin:round; stroke-width:4; stroke-opacity:1; fill:none" points="257.366,1423.18 2352.76,1423.18 "></polyline>
<polyline clip-path="url(#clip960)" style="stroke:#000000; stroke-linecap:round; stroke-linejoin:round; stroke-width:4; stroke-opacity:1; fill:none" points="314.693,1423.18 314.693,1404.28 "></polyline>
<polyline clip-path="url(#clip960)" style="stroke:#000000; stroke-linecap:round; stroke-linejoin:round; stroke-width:4; stroke-opacity:1; fill:none" points="808.888,1423.18 808.888,1404.28 "></polyline>
<polyline clip-path="url(#clip960)" style="stroke:#000000; stroke-linecap:round; stroke-linejoin:round; stroke-width:4; stroke-opacity:1; fill:none" points="1303.08,1423.18 1303.08,1404.28 "></polyline>
<polyline clip-path="url(#clip960)" style="stroke:#000000; stroke-linecap:round; stroke-linejoin:round; stroke-width:4; stroke-opacity:1; fill:none" points="1797.28,1423.18 1797.28,1404.28 "></polyline>
<polyline clip-path="url(#clip960)" style="stroke:#000000; stroke-linecap:round; stroke-linejoin:round; stroke-width:4; stroke-opacity:1; fill:none" points="2291.48,1423.18 2291.48,1404.28 "></polyline>
<path clip-path="url(#clip960)" d="M314.693 1454.1 Q311.082 1454.1 309.253 1457.66 Q307.447 1461.2 307.447 1468.33 Q307.447 1475.44 309.253 1479.01 Q311.082 1482.55 314.693 1482.55 Q318.327 1482.55 320.133 1479.01 Q321.961 1475.44 321.961 1468.33 Q321.961 1461.2 320.133 1457.66 Q318.327 1454.1 314.693 1454.1 M314.693 1450.39 Q320.503 1450.39 323.558 1455 Q326.637 1459.58 326.637 1468.33 Q326.637 1477.06 323.558 1481.67 Q320.503 1486.25 314.693 1486.25 Q308.883 1486.25 305.804 1481.67 Q302.748 1477.06 302.748 1468.33 Q302.748 1459.58 305.804 1455 Q308.883 1450.39 314.693 1450.39 Z" fill="#000000" fill-rule="nonzero" fill-opacity="1"></path><path clip-path="url(#clip960)" d="M772.581 1481.64 L788.9 1481.64 L788.9 1485.58 L766.956 1485.58 L766.956 1481.64 Q769.618 1478.89 774.201 1474.26 Q778.808 1469.61 779.988 1468.27 Q782.234 1465.74 783.113 1464.01 Q784.016 1462.25 784.016 1460.56 Q784.016 1457.8 782.071 1456.07 Q780.15 1454.33 777.048 1454.33 Q774.849 1454.33 772.396 1455.09 Q769.965 1455.86 767.187 1457.41 L767.187 1452.69 Q770.011 1451.55 772.465 1450.97 Q774.919 1450.39 776.956 1450.39 Q782.326 1450.39 785.521 1453.08 Q788.715 1455.77 788.715 1460.26 Q788.715 1462.39 787.905 1464.31 Q787.118 1466.2 785.011 1468.8 Q784.433 1469.47 781.331 1472.69 Q778.229 1475.88 772.581 1481.64 Z" fill="#000000" fill-rule="nonzero" fill-opacity="1"></path><path clip-path="url(#clip960)" d="M798.761 1451.02 L817.118 1451.02 L817.118 1454.96 L803.044 1454.96 L803.044 1463.43 Q804.062 1463.08 805.081 1462.92 Q806.099 1462.73 807.118 1462.73 Q812.905 1462.73 816.284 1465.9 Q819.664 1469.08 819.664 1474.49 Q819.664 1480.07 816.192 1483.17 Q812.719 1486.25 806.4 1486.25 Q804.224 1486.25 801.956 1485.88 Q799.71 1485.51 797.303 1484.77 L797.303 1480.07 Q799.386 1481.2 801.608 1481.76 Q803.831 1482.32 806.307 1482.32 Q810.312 1482.32 812.65 1480.21 Q814.988 1478.1 814.988 1474.49 Q814.988 1470.88 812.65 1468.77 Q810.312 1466.67 806.307 1466.67 Q804.432 1466.67 802.558 1467.08 Q800.706 1467.5 798.761 1468.38 L798.761 1451.02 Z" fill="#000000" fill-rule="nonzero" fill-opacity="1"></path><path clip-path="url(#clip960)" d="M838.877 1454.1 Q835.266 1454.1 833.437 1457.66 Q831.631 1461.2 831.631 1468.33 Q831.631 1475.44 833.437 1479.01 Q835.266 1482.55 838.877 1482.55 Q842.511 1482.55 844.317 1479.01 Q846.145 1475.44 846.145 1468.33 Q846.145 1461.2 844.317 1457.66 Q842.511 1454.1 838.877 1454.1 M838.877 1450.39 Q844.687 1450.39 847.742 1455 Q850.821 1459.58 850.821 1468.33 Q850.821 1477.06 847.742 1481.67 Q844.687 1486.25 838.877 1486.25 Q833.067 1486.25 829.988 1481.67 Q826.932 1477.06 826.932 1468.33 Q826.932 1459.58 829.988 1455 Q833.067 1450.39 838.877 1450.39 Z" fill="#000000" fill-rule="nonzero" fill-opacity="1"></path><path clip-path="url(#clip960)" d="M1262.7 1451.02 L1281.06 1451.02 L1281.06 1454.96 L1266.98 1454.96 L1266.98 1463.43 Q1268 1463.08 1269.02 1462.92 Q1270.04 1462.73 1271.06 1462.73 Q1276.85 1462.73 1280.23 1465.9 Q1283.61 1469.08 1283.61 1474.49 Q1283.61 1480.07 1280.13 1483.17 Q1276.66 1486.25 1270.34 1486.25 Q1268.17 1486.25 1265.9 1485.88 Q1263.65 1485.51 1261.24 1484.77 L1261.24 1480.07 Q1263.33 1481.2 1265.55 1481.76 Q1267.77 1482.32 1270.25 1482.32 Q1274.25 1482.32 1276.59 1480.21 Q1278.93 1478.1 1278.93 1474.49 Q1278.93 1470.88 1276.59 1468.77 Q1274.25 1466.67 1270.25 1466.67 Q1268.37 1466.67 1266.5 1467.08 Q1264.65 1467.5 1262.7 1468.38 L1262.7 1451.02 Z" fill="#000000" fill-rule="nonzero" fill-opacity="1"></path><path clip-path="url(#clip960)" d="M1302.82 1454.1 Q1299.21 1454.1 1297.38 1457.66 Q1295.57 1461.2 1295.57 1468.33 Q1295.57 1475.44 1297.38 1479.01 Q1299.21 1482.55 1302.82 1482.55 Q1306.45 1482.55 1308.26 1479.01 Q1310.09 1475.44 1310.09 1468.33 Q1310.09 1461.2 1308.26 1457.66 Q1306.45 1454.1 1302.82 1454.1 M1302.82 1450.39 Q1308.63 1450.39 1311.68 1455 Q1314.76 1459.58 1314.76 1468.33 Q1314.76 1477.06 1311.68 1481.67 Q1308.63 1486.25 1302.82 1486.25 Q1297.01 1486.25 1293.93 1481.67 Q1290.87 1477.06 1290.87 1468.33 Q1290.87 1459.58 1293.93 1455 Q1297.01 1450.39 1302.82 1450.39 Z" fill="#000000" fill-rule="nonzero" fill-opacity="1"></path><path clip-path="url(#clip960)" d="M1332.98 1454.1 Q1329.37 1454.1 1327.54 1457.66 Q1325.73 1461.2 1325.73 1468.33 Q1325.73 1475.44 1327.54 1479.01 Q1329.37 1482.55 1332.98 1482.55 Q1336.61 1482.55 1338.42 1479.01 Q1340.25 1475.44 1340.25 1468.33 Q1340.25 1461.2 1338.42 1457.66 Q1336.61 1454.1 1332.98 1454.1 M1332.98 1450.39 Q1338.79 1450.39 1341.85 1455 Q1344.92 1459.58 1344.92 1468.33 Q1344.92 1477.06 1341.85 1481.67 Q1338.79 1486.25 1332.98 1486.25 Q1327.17 1486.25 1324.09 1481.67 Q1321.04 1477.06 1321.04 1468.33 Q1321.04 1459.58 1324.09 1455 Q1327.17 1450.39 1332.98 1450.39 Z" fill="#000000" fill-rule="nonzero" fill-opacity="1"></path><path clip-path="url(#clip960)" d="M1755.56 1451.02 L1777.78 1451.02 L1777.78 1453.01 L1765.23 1485.58 L1760.35 1485.58 L1772.15 1454.96 L1755.56 1454.96 L1755.56 1451.02 Z" fill="#000000" fill-rule="nonzero" fill-opacity="1"></path><path clip-path="url(#clip960)" d="M1786.94 1451.02 L1805.3 1451.02 L1805.3 1454.96 L1791.23 1454.96 L1791.23 1463.43 Q1792.25 1463.08 1793.26 1462.92 Q1794.28 1462.73 1795.3 1462.73 Q1801.09 1462.73 1804.47 1465.9 Q1807.85 1469.08 1807.85 1474.49 Q1807.85 1480.07 1804.37 1483.17 Q1800.9 1486.25 1794.58 1486.25 Q1792.41 1486.25 1790.14 1485.88 Q1787.89 1485.51 1785.49 1484.77 L1785.49 1480.07 Q1787.57 1481.2 1789.79 1481.76 Q1792.01 1482.32 1794.49 1482.32 Q1798.5 1482.32 1800.83 1480.21 Q1803.17 1478.1 1803.17 1474.49 Q1803.17 1470.88 1800.83 1468.77 Q1798.5 1466.67 1794.49 1466.67 Q1792.62 1466.67 1790.74 1467.08 Q1788.89 1467.5 1786.94 1468.38 L1786.94 1451.02 Z" fill="#000000" fill-rule="nonzero" fill-opacity="1"></path><path clip-path="url(#clip960)" d="M1827.06 1454.1 Q1823.45 1454.1 1821.62 1457.66 Q1819.81 1461.2 1819.81 1468.33 Q1819.81 1475.44 1821.62 1479.01 Q1823.45 1482.55 1827.06 1482.55 Q1830.69 1482.55 1832.5 1479.01 Q1834.33 1475.44 1834.33 1468.33 Q1834.33 1461.2 1832.5 1457.66 Q1830.69 1454.1 1827.06 1454.1 M1827.06 1450.39 Q1832.87 1450.39 1835.93 1455 Q1839 1459.58 1839 1468.33 Q1839 1477.06 1835.93 1481.67 Q1832.87 1486.25 1827.06 1486.25 Q1821.25 1486.25 1818.17 1481.67 Q1815.12 1477.06 1815.12 1468.33 Q1815.12 1459.58 1818.17 1455 Q1821.25 1450.39 1827.06 1450.39 Z" fill="#000000" fill-rule="nonzero" fill-opacity="1"></path><path clip-path="url(#clip960)" d="M2236 1481.64 L2243.64 1481.64 L2243.64 1455.28 L2235.33 1456.95 L2235.33 1452.69 L2243.59 1451.02 L2248.27 1451.02 L2248.27 1481.64 L2255.91 1481.64 L2255.91 1485.58 L2236 1485.58 L2236 1481.64 Z" fill="#000000" fill-rule="nonzero" fill-opacity="1"></path><path clip-path="url(#clip960)" d="M2275.35 1454.1 Q2271.74 1454.1 2269.91 1457.66 Q2268.11 1461.2 2268.11 1468.33 Q2268.11 1475.44 2269.91 1479.01 Q2271.74 1482.55 2275.35 1482.55 Q2278.99 1482.55 2280.79 1479.01 Q2282.62 1475.44 2282.62 1468.33 Q2282.62 1461.2 2280.79 1457.66 Q2278.99 1454.1 2275.35 1454.1 M2275.35 1450.39 Q2281.16 1450.39 2284.22 1455 Q2287.3 1459.58 2287.3 1468.33 Q2287.3 1477.06 2284.22 1481.67 Q2281.16 1486.25 2275.35 1486.25 Q2269.54 1486.25 2266.46 1481.67 Q2263.41 1477.06 2263.41 1468.33 Q2263.41 1459.58 2266.46 1455 Q2269.54 1450.39 2275.35 1450.39 Z" fill="#000000" fill-rule="nonzero" fill-opacity="1"></path><path clip-path="url(#clip960)" d="M2305.51 1454.1 Q2301.9 1454.1 2300.08 1457.66 Q2298.27 1461.2 2298.27 1468.33 Q2298.27 1475.44 2300.08 1479.01 Q2301.9 1482.55 2305.51 1482.55 Q2309.15 1482.55 2310.95 1479.01 Q2312.78 1475.44 2312.78 1468.33 Q2312.78 1461.2 2310.95 1457.66 Q2309.15 1454.1 2305.51 1454.1 M2305.51 1450.39 Q2311.33 1450.39 2314.38 1455 Q2317.46 1459.58 2317.46 1468.33 Q2317.46 1477.06 2314.38 1481.67 Q2311.33 1486.25 2305.51 1486.25 Q2299.7 1486.25 2296.63 1481.67 Q2293.57 1477.06 2293.57 1468.33 Q2293.57 1459.58 2296.63 1455 Q2299.7 1450.39 2305.51 1450.39 Z" fill="#000000" fill-rule="nonzero" fill-opacity="1"></path><path clip-path="url(#clip960)" d="M2335.68 1454.1 Q2332.07 1454.1 2330.24 1457.66 Q2328.43 1461.2 2328.43 1468.33 Q2328.43 1475.44 2330.24 1479.01 Q2332.07 1482.55 2335.68 1482.55 Q2339.31 1482.55 2341.12 1479.01 Q2342.95 1475.44 2342.95 1468.33 Q2342.95 1461.2 2341.12 1457.66 Q2339.31 1454.1 2335.68 1454.1 M2335.68 1450.39 Q2341.49 1450.39 2344.54 1455 Q2347.62 1459.58 2347.62 1468.33 Q2347.62 1477.06 2344.54 1481.67 Q2341.49 1486.25 2335.68 1486.25 Q2329.87 1486.25 2326.79 1481.67 Q2323.73 1477.06 2323.73 1468.33 Q2323.73 1459.58 2326.79 1455 Q2329.87 1450.39 2335.68 1450.39 Z" fill="#000000" fill-rule="nonzero" fill-opacity="1"></path><path clip-path="url(#clip960)" d="M1172.78 1520.52 L1179.21 1520.52 L1179.21 1568.04 L1172.78 1568.04 L1172.78 1520.52 Z" fill="#000000" fill-rule="nonzero" fill-opacity="1"></path><path clip-path="url(#clip960)" d="M1197.54 1522.27 L1197.54 1532.4 L1209.61 1532.4 L1209.61 1536.95 L1197.54 1536.95 L1197.54 1556.3 Q1197.54 1560.66 1198.72 1561.9 Q1199.93 1563.14 1203.59 1563.14 L1209.61 1563.14 L1209.61 1568.04 L1203.59 1568.04 Q1196.81 1568.04 1194.23 1565.53 Q1191.66 1562.98 1191.66 1556.3 L1191.66 1536.95 L1187.36 1536.95 L1187.36 1532.4 L1191.66 1532.4 L1191.66 1522.27 L1197.54 1522.27 Z" fill="#000000" fill-rule="nonzero" fill-opacity="1"></path><path clip-path="url(#clip960)" d="M1247.8 1548.76 L1247.8 1551.62 L1220.87 1551.62 Q1221.26 1557.67 1224.5 1560.85 Q1227.78 1564 1233.61 1564 Q1236.98 1564 1240.13 1563.17 Q1243.31 1562.35 1246.43 1560.69 L1246.43 1566.23 Q1243.28 1567.57 1239.97 1568.27 Q1236.66 1568.97 1233.26 1568.97 Q1224.73 1568.97 1219.73 1564 Q1214.76 1559.04 1214.76 1550.57 Q1214.76 1541.82 1219.47 1536.69 Q1224.22 1531.54 1232.24 1531.54 Q1239.43 1531.54 1243.6 1536.18 Q1247.8 1540.8 1247.8 1548.76 M1241.95 1547.04 Q1241.88 1542.23 1239.24 1539.37 Q1236.63 1536.5 1232.3 1536.5 Q1227.4 1536.5 1224.44 1539.27 Q1221.51 1542.04 1221.07 1547.07 L1241.95 1547.04 Z" fill="#000000" fill-rule="nonzero" fill-opacity="1"></path><path clip-path="url(#clip960)" d="M1278.07 1537.87 Q1277.08 1537.3 1275.91 1537.04 Q1274.76 1536.76 1273.36 1536.76 Q1268.39 1536.76 1265.72 1540 Q1263.08 1543.22 1263.08 1549.27 L1263.08 1568.04 L1257.19 1568.04 L1257.19 1532.4 L1263.08 1532.4 L1263.08 1537.93 Q1264.93 1534.69 1267.89 1533.13 Q1270.85 1531.54 1275.08 1531.54 Q1275.68 1531.54 1276.42 1531.63 Q1277.15 1531.7 1278.04 1531.85 L1278.07 1537.87 Z" fill="#000000" fill-rule="nonzero" fill-opacity="1"></path><path clip-path="url(#clip960)" d="M1300.41 1550.12 Q1293.32 1550.12 1290.58 1551.75 Q1287.84 1553.37 1287.84 1557.29 Q1287.84 1560.4 1289.88 1562.25 Q1291.95 1564.07 1295.48 1564.07 Q1300.35 1564.07 1303.28 1560.63 Q1306.24 1557.16 1306.24 1551.43 L1306.24 1550.12 L1300.41 1550.12 M1312.1 1547.71 L1312.1 1568.04 L1306.24 1568.04 L1306.24 1562.63 Q1304.23 1565.88 1301.24 1567.44 Q1298.25 1568.97 1293.92 1568.97 Q1288.45 1568.97 1285.2 1565.91 Q1281.99 1562.82 1281.99 1557.67 Q1281.99 1551.65 1286 1548.6 Q1290.04 1545.54 1298.03 1545.54 L1306.24 1545.54 L1306.24 1544.97 Q1306.24 1540.93 1303.57 1538.73 Q1300.92 1536.5 1296.12 1536.5 Q1293.06 1536.5 1290.17 1537.23 Q1287.27 1537.97 1284.6 1539.43 L1284.6 1534.02 Q1287.81 1532.78 1290.83 1532.17 Q1293.86 1531.54 1296.72 1531.54 Q1304.46 1531.54 1308.28 1535.55 Q1312.1 1539.56 1312.1 1547.71 Z" fill="#000000" fill-rule="nonzero" fill-opacity="1"></path><path clip-path="url(#clip960)" d="M1329.95 1522.27 L1329.95 1532.4 L1342.01 1532.4 L1342.01 1536.95 L1329.95 1536.95 L1329.95 1556.3 Q1329.95 1560.66 1331.13 1561.9 Q1332.34 1563.14 1336 1563.14 L1342.01 1563.14 L1342.01 1568.04 L1336 1568.04 Q1329.22 1568.04 1326.64 1565.53 Q1324.06 1562.98 1324.06 1556.3 L1324.06 1536.95 L1319.77 1536.95 L1319.77 1532.4 L1324.06 1532.4 L1324.06 1522.27 L1329.95 1522.27 Z" fill="#000000" fill-rule="nonzero" fill-opacity="1"></path><path clip-path="url(#clip960)" d="M1349.72 1532.4 L1355.57 1532.4 L1355.57 1568.04 L1349.72 1568.04 L1349.72 1532.4 M1349.72 1518.52 L1355.57 1518.52 L1355.57 1525.93 L1349.72 1525.93 L1349.72 1518.52 Z" fill="#000000" fill-rule="nonzero" fill-opacity="1"></path><path clip-path="url(#clip960)" d="M1381.64 1536.5 Q1376.93 1536.5 1374.19 1540.19 Q1371.46 1543.85 1371.46 1550.25 Q1371.46 1556.65 1374.16 1560.34 Q1376.9 1564 1381.64 1564 Q1386.32 1564 1389.06 1560.31 Q1391.79 1556.62 1391.79 1550.25 Q1391.79 1543.92 1389.06 1540.23 Q1386.32 1536.5 1381.64 1536.5 M1381.64 1531.54 Q1389.28 1531.54 1393.64 1536.5 Q1398 1541.47 1398 1550.25 Q1398 1559 1393.64 1564 Q1389.28 1568.97 1381.64 1568.97 Q1373.97 1568.97 1369.61 1564 Q1365.28 1559 1365.28 1550.25 Q1365.28 1541.47 1369.61 1536.5 Q1373.97 1531.54 1381.64 1531.54 Z" fill="#000000" fill-rule="nonzero" fill-opacity="1"></path><path clip-path="url(#clip960)" d="M1437.34 1546.53 L1437.34 1568.04 L1431.48 1568.04 L1431.48 1546.72 Q1431.48 1541.66 1429.51 1539.14 Q1427.54 1536.63 1423.59 1536.63 Q1418.85 1536.63 1416.11 1539.65 Q1413.37 1542.68 1413.37 1547.9 L1413.37 1568.04 L1407.49 1568.04 L1407.49 1532.4 L1413.37 1532.4 L1413.37 1537.93 Q1415.47 1534.72 1418.31 1533.13 Q1421.17 1531.54 1424.9 1531.54 Q1431.04 1531.54 1434.19 1535.36 Q1437.34 1539.14 1437.34 1546.53 Z" fill="#000000" fill-rule="nonzero" fill-opacity="1"></path><polyline clip-path="url(#clip960)" style="stroke:#000000; stroke-linecap:round; stroke-linejoin:round; stroke-width:4; stroke-opacity:1; fill:none" points="257.366,1423.18 257.366,123.472 "></polyline>
<polyline clip-path="url(#clip960)" style="stroke:#000000; stroke-linecap:round; stroke-linejoin:round; stroke-width:4; stroke-opacity:1; fill:none" points="257.366,1199.35 276.264,1199.35 "></polyline>
<polyline clip-path="url(#clip960)" style="stroke:#000000; stroke-linecap:round; stroke-linejoin:round; stroke-width:4; stroke-opacity:1; fill:none" points="257.366,945.203 276.264,945.203 "></polyline>
<polyline clip-path="url(#clip960)" style="stroke:#000000; stroke-linecap:round; stroke-linejoin:round; stroke-width:4; stroke-opacity:1; fill:none" points="257.366,691.053 276.264,691.053 "></polyline>
<polyline clip-path="url(#clip960)" style="stroke:#000000; stroke-linecap:round; stroke-linejoin:round; stroke-width:4; stroke-opacity:1; fill:none" points="257.366,436.904 276.264,436.904 "></polyline>
<polyline clip-path="url(#clip960)" style="stroke:#000000; stroke-linecap:round; stroke-linejoin:round; stroke-width:4; stroke-opacity:1; fill:none" points="257.366,182.755 276.264,182.755 "></polyline>
<path clip-path="url(#clip960)" d="M114.26 1199.8 L143.936 1199.8 L143.936 1203.74 L114.26 1203.74 L114.26 1199.8 Z" fill="#000000" fill-rule="nonzero" fill-opacity="1"></path><path clip-path="url(#clip960)" d="M164.028 1185.15 Q160.417 1185.15 158.589 1188.72 Q156.783 1192.26 156.783 1199.39 Q156.783 1206.49 158.589 1210.06 Q160.417 1213.6 164.028 1213.6 Q167.663 1213.6 169.468 1210.06 Q171.297 1206.49 171.297 1199.39 Q171.297 1192.26 169.468 1188.72 Q167.663 1185.15 164.028 1185.15 M164.028 1181.45 Q169.839 1181.45 172.894 1186.05 Q175.973 1190.64 175.973 1199.39 Q175.973 1208.11 172.894 1212.72 Q169.839 1217.3 164.028 1217.3 Q158.218 1217.3 155.14 1212.72 Q152.084 1208.11 152.084 1199.39 Q152.084 1190.64 155.14 1186.05 Q158.218 1181.45 164.028 1181.45 Z" fill="#000000" fill-rule="nonzero" fill-opacity="1"></path><path clip-path="url(#clip960)" d="M184.19 1210.75 L189.075 1210.75 L189.075 1216.63 L184.19 1216.63 L184.19 1210.75 Z" fill="#000000" fill-rule="nonzero" fill-opacity="1"></path><path clip-path="url(#clip960)" d="M209.838 1197.49 Q206.69 1197.49 204.838 1199.64 Q203.01 1201.79 203.01 1205.54 Q203.01 1209.27 204.838 1211.45 Q206.69 1213.6 209.838 1213.6 Q212.986 1213.6 214.815 1211.45 Q216.667 1209.27 216.667 1205.54 Q216.667 1201.79 214.815 1199.64 Q212.986 1197.49 209.838 1197.49 M219.121 1182.84 L219.121 1187.1 Q217.361 1186.26 215.556 1185.82 Q213.774 1185.38 212.014 1185.38 Q207.385 1185.38 204.931 1188.51 Q202.5 1191.63 202.153 1197.95 Q203.519 1195.94 205.579 1194.87 Q207.639 1193.79 210.116 1193.79 Q215.324 1193.79 218.334 1196.96 Q221.366 1200.1 221.366 1205.54 Q221.366 1210.87 218.218 1214.09 Q215.07 1217.3 209.838 1217.3 Q203.843 1217.3 200.672 1212.72 Q197.5 1208.11 197.5 1199.39 Q197.5 1191.19 201.389 1186.33 Q205.278 1181.45 211.829 1181.45 Q213.588 1181.45 215.371 1181.79 Q217.176 1182.14 219.121 1182.84 Z" fill="#000000" fill-rule="nonzero" fill-opacity="1"></path><path clip-path="url(#clip960)" d="M115.07 945.654 L144.746 945.654 L144.746 949.589 L115.07 949.589 L115.07 945.654 Z" fill="#000000" fill-rule="nonzero" fill-opacity="1"></path><path clip-path="url(#clip960)" d="M164.839 931.002 Q161.227 931.002 159.399 934.566 Q157.593 938.108 157.593 945.238 Q157.593 952.344 159.399 955.909 Q161.227 959.45 164.839 959.45 Q168.473 959.45 170.278 955.909 Q172.107 952.344 172.107 945.238 Q172.107 938.108 170.278 934.566 Q168.473 931.002 164.839 931.002 M164.839 927.298 Q170.649 927.298 173.704 931.904 Q176.783 936.488 176.783 945.238 Q176.783 953.964 173.704 958.571 Q170.649 963.154 164.839 963.154 Q159.028 963.154 155.95 958.571 Q152.894 953.964 152.894 945.238 Q152.894 936.488 155.95 931.904 Q159.028 927.298 164.839 927.298 Z" fill="#000000" fill-rule="nonzero" fill-opacity="1"></path><path clip-path="url(#clip960)" d="M185.001 956.603 L189.885 956.603 L189.885 962.483 L185.001 962.483 L185.001 956.603 Z" fill="#000000" fill-rule="nonzero" fill-opacity="1"></path><path clip-path="url(#clip960)" d="M214.236 943.849 Q217.593 944.566 219.468 946.835 Q221.366 949.103 221.366 952.437 Q221.366 957.552 217.848 960.353 Q214.329 963.154 207.848 963.154 Q205.672 963.154 203.357 962.714 Q201.065 962.298 198.612 961.441 L198.612 956.927 Q200.556 958.062 202.871 958.64 Q205.186 959.219 207.709 959.219 Q212.107 959.219 214.399 957.483 Q216.713 955.747 216.713 952.437 Q216.713 949.381 214.561 947.668 Q212.431 945.932 208.612 945.932 L204.584 945.932 L204.584 942.089 L208.797 942.089 Q212.246 942.089 214.074 940.724 Q215.903 939.335 215.903 936.742 Q215.903 934.08 214.005 932.668 Q212.13 931.233 208.612 931.233 Q206.69 931.233 204.491 931.65 Q202.292 932.066 199.653 932.946 L199.653 928.779 Q202.315 928.039 204.63 927.668 Q206.968 927.298 209.028 927.298 Q214.352 927.298 217.454 929.728 Q220.556 932.136 220.556 936.256 Q220.556 939.127 218.912 941.117 Q217.269 943.085 214.236 943.849 Z" fill="#000000" fill-rule="nonzero" fill-opacity="1"></path><path clip-path="url(#clip960)" d="M164.19 676.852 Q160.579 676.852 158.751 680.417 Q156.945 683.959 156.945 691.088 Q156.945 698.195 158.751 701.759 Q160.579 705.301 164.19 705.301 Q167.825 705.301 169.63 701.759 Q171.459 698.195 171.459 691.088 Q171.459 683.959 169.63 680.417 Q167.825 676.852 164.19 676.852 M164.19 673.148 Q170.001 673.148 173.056 677.755 Q176.135 682.338 176.135 691.088 Q176.135 699.815 173.056 704.421 Q170.001 709.005 164.19 709.005 Q158.38 709.005 155.302 704.421 Q152.246 699.815 152.246 691.088 Q152.246 682.338 155.302 677.755 Q158.38 673.148 164.19 673.148 Z" fill="#000000" fill-rule="nonzero" fill-opacity="1"></path><path clip-path="url(#clip960)" d="M184.352 702.454 L189.237 702.454 L189.237 708.333 L184.352 708.333 L184.352 702.454 Z" fill="#000000" fill-rule="nonzero" fill-opacity="1"></path><path clip-path="url(#clip960)" d="M209.422 676.852 Q205.811 676.852 203.982 680.417 Q202.176 683.959 202.176 691.088 Q202.176 698.195 203.982 701.759 Q205.811 705.301 209.422 705.301 Q213.056 705.301 214.861 701.759 Q216.69 698.195 216.69 691.088 Q216.69 683.959 214.861 680.417 Q213.056 676.852 209.422 676.852 M209.422 673.148 Q215.232 673.148 218.287 677.755 Q221.366 682.338 221.366 691.088 Q221.366 699.815 218.287 704.421 Q215.232 709.005 209.422 709.005 Q203.612 709.005 200.533 704.421 Q197.477 699.815 197.477 691.088 Q197.477 682.338 200.533 677.755 Q203.612 673.148 209.422 673.148 Z" fill="#000000" fill-rule="nonzero" fill-opacity="1"></path><path clip-path="url(#clip960)" d="M164.839 422.703 Q161.227 422.703 159.399 426.268 Q157.593 429.809 157.593 436.939 Q157.593 444.045 159.399 447.61 Q161.227 451.152 164.839 451.152 Q168.473 451.152 170.278 447.61 Q172.107 444.045 172.107 436.939 Q172.107 429.809 170.278 426.268 Q168.473 422.703 164.839 422.703 M164.839 418.999 Q170.649 418.999 173.704 423.605 Q176.783 428.189 176.783 436.939 Q176.783 445.666 173.704 450.272 Q170.649 454.855 164.839 454.855 Q159.028 454.855 155.95 450.272 Q152.894 445.666 152.894 436.939 Q152.894 428.189 155.95 423.605 Q159.028 418.999 164.839 418.999 Z" fill="#000000" fill-rule="nonzero" fill-opacity="1"></path><path clip-path="url(#clip960)" d="M185.001 448.304 L189.885 448.304 L189.885 454.184 L185.001 454.184 L185.001 448.304 Z" fill="#000000" fill-rule="nonzero" fill-opacity="1"></path><path clip-path="url(#clip960)" d="M214.236 435.55 Q217.593 436.267 219.468 438.536 Q221.366 440.804 221.366 444.138 Q221.366 449.254 217.848 452.054 Q214.329 454.855 207.848 454.855 Q205.672 454.855 203.357 454.416 Q201.065 453.999 198.612 453.142 L198.612 448.629 Q200.556 449.763 202.871 450.341 Q205.186 450.92 207.709 450.92 Q212.107 450.92 214.399 449.184 Q216.713 447.448 216.713 444.138 Q216.713 441.082 214.561 439.369 Q212.431 437.633 208.612 437.633 L204.584 437.633 L204.584 433.791 L208.797 433.791 Q212.246 433.791 214.074 432.425 Q215.903 431.036 215.903 428.443 Q215.903 425.781 214.005 424.369 Q212.13 422.934 208.612 422.934 Q206.69 422.934 204.491 423.351 Q202.292 423.768 199.653 424.647 L199.653 420.481 Q202.315 419.74 204.63 419.369 Q206.968 418.999 209.028 418.999 Q214.352 418.999 217.454 421.43 Q220.556 423.837 220.556 427.957 Q220.556 430.828 218.912 432.818 Q217.269 434.786 214.236 435.55 Z" fill="#000000" fill-rule="nonzero" fill-opacity="1"></path><path clip-path="url(#clip960)" d="M164.028 168.553 Q160.417 168.553 158.589 172.118 Q156.783 175.66 156.783 182.789 Q156.783 189.896 158.589 193.461 Q160.417 197.002 164.028 197.002 Q167.663 197.002 169.468 193.461 Q171.297 189.896 171.297 182.789 Q171.297 175.66 169.468 172.118 Q167.663 168.553 164.028 168.553 M164.028 164.85 Q169.839 164.85 172.894 169.456 Q175.973 174.039 175.973 182.789 Q175.973 191.516 172.894 196.123 Q169.839 200.706 164.028 200.706 Q158.218 200.706 155.14 196.123 Q152.084 191.516 152.084 182.789 Q152.084 174.039 155.14 169.456 Q158.218 164.85 164.028 164.85 Z" fill="#000000" fill-rule="nonzero" fill-opacity="1"></path><path clip-path="url(#clip960)" d="M184.19 194.155 L189.075 194.155 L189.075 200.035 L184.19 200.035 L184.19 194.155 Z" fill="#000000" fill-rule="nonzero" fill-opacity="1"></path><path clip-path="url(#clip960)" d="M209.838 180.891 Q206.69 180.891 204.838 183.044 Q203.01 185.197 203.01 188.947 Q203.01 192.674 204.838 194.849 Q206.69 197.002 209.838 197.002 Q212.986 197.002 214.815 194.849 Q216.667 192.674 216.667 188.947 Q216.667 185.197 214.815 183.044 Q212.986 180.891 209.838 180.891 M219.121 166.238 L219.121 170.498 Q217.361 169.664 215.556 169.225 Q213.774 168.785 212.014 168.785 Q207.385 168.785 204.931 171.91 Q202.5 175.035 202.153 181.354 Q203.519 179.34 205.579 178.275 Q207.639 177.188 210.116 177.188 Q215.324 177.188 218.334 180.359 Q221.366 183.507 221.366 188.947 Q221.366 194.271 218.218 197.488 Q215.07 200.706 209.838 200.706 Q203.843 200.706 200.672 196.123 Q197.5 191.516 197.5 182.789 Q197.5 174.595 201.389 169.734 Q205.278 164.85 211.829 164.85 Q213.588 164.85 215.371 165.197 Q217.176 165.544 219.121 166.238 Z" fill="#000000" fill-rule="nonzero" fill-opacity="1"></path><path clip-path="url(#clip960)" d="M14.479 914.056 L14.479 908.199 L64.0042 908.199 L64.0042 914.056 L14.479 914.056 Z" fill="#000000" fill-rule="nonzero" fill-opacity="1"></path><path clip-path="url(#clip960)" d="M32.4621 882.132 Q32.4621 886.842 36.1542 889.58 Q39.8145 892.317 46.212 892.317 Q52.6095 892.317 56.3017 889.612 Q59.9619 886.874 59.9619 882.132 Q59.9619 877.453 56.2698 874.716 Q52.5777 871.979 46.212 871.979 Q39.8781 871.979 36.186 874.716 Q32.4621 877.453 32.4621 882.132 M27.4968 882.132 Q27.4968 874.493 32.4621 870.132 Q37.4273 865.772 46.212 865.772 Q54.9649 865.772 59.9619 870.132 Q64.9272 874.493 64.9272 882.132 Q64.9272 889.803 59.9619 894.163 Q54.9649 898.492 46.212 898.492 Q37.4273 898.492 32.4621 894.163 Q27.4968 889.803 27.4968 882.132 Z" fill="#000000" fill-rule="nonzero" fill-opacity="1"></path><path clip-path="url(#clip960)" d="M45.7664 832.607 Q39.4007 832.607 35.8996 835.248 Q32.3984 837.858 32.3984 842.601 Q32.3984 847.311 35.8996 849.953 Q39.4007 852.563 45.7664 852.563 Q52.1003 852.563 55.6014 849.953 Q59.1026 847.311 59.1026 842.601 Q59.1026 837.858 55.6014 835.248 Q52.1003 832.607 45.7664 832.607 M59.58 826.75 Q68.683 826.75 73.1071 830.792 Q77.5631 834.835 77.5631 843.174 Q77.5631 846.261 77.0857 848.998 Q76.6401 851.736 75.6852 854.314 L69.9879 854.314 Q71.3884 851.736 72.0568 849.221 Q72.7252 846.707 72.7252 844.097 Q72.7252 838.336 69.7015 835.471 Q66.7096 832.607 60.6303 832.607 L57.7339 832.607 Q60.885 834.421 62.4446 837.254 Q64.0042 840.086 64.0042 844.033 Q64.0042 850.59 59.0071 854.6 Q54.01 858.611 45.7664 858.611 Q37.491 858.611 32.4939 854.6 Q27.4968 850.59 27.4968 844.033 Q27.4968 840.086 29.0564 837.254 Q30.616 834.421 33.7671 832.607 L28.3562 832.607 L28.3562 826.75 L59.58 826.75 Z" fill="#000000" fill-rule="nonzero" fill-opacity="1"></path><path clip-path="url(#clip960)" d="M14.5426 800.619 Q21.8632 804.884 29.0246 806.953 Q36.186 809.022 43.5384 809.022 Q50.8908 809.022 58.1159 806.953 Q65.3091 804.852 72.5979 800.619 L72.5979 805.712 Q65.1182 810.486 57.8931 812.873 Q50.668 815.228 43.5384 815.228 Q36.4406 815.228 29.2474 812.873 Q22.0542 810.518 14.5426 805.712 L14.5426 800.619 Z" fill="#000000" fill-rule="nonzero" fill-opacity="1"></path><path clip-path="url(#clip960)" d="M16.4842 789.002 L16.4842 782.572 L58.5933 782.572 L58.5933 759.433 L64.0042 759.433 L64.0042 789.002 L16.4842 789.002 Z" fill="#000000" fill-rule="nonzero" fill-opacity="1"></path><path clip-path="url(#clip960)" d="M32.4621 740.272 Q32.4621 744.983 36.1542 747.72 Q39.8145 750.457 46.212 750.457 Q52.6095 750.457 56.3017 747.752 Q59.9619 745.015 59.9619 740.272 Q59.9619 735.593 56.2698 732.856 Q52.5777 730.119 46.212 730.119 Q39.8781 730.119 36.186 732.856 Q32.4621 735.593 32.4621 740.272 M27.4968 740.272 Q27.4968 732.633 32.4621 728.273 Q37.4273 723.912 46.212 723.912 Q54.9649 723.912 59.9619 728.273 Q64.9272 732.633 64.9272 740.272 Q64.9272 747.943 59.9619 752.303 Q54.9649 756.632 46.212 756.632 Q37.4273 756.632 32.4621 752.303 Q27.4968 747.943 27.4968 740.272 Z" fill="#000000" fill-rule="nonzero" fill-opacity="1"></path><path clip-path="url(#clip960)" d="M29.4065 691.479 L34.9447 691.479 Q33.6716 693.962 33.035 696.635 Q32.3984 699.309 32.3984 702.173 Q32.3984 706.534 33.7352 708.73 Q35.072 710.894 37.7456 710.894 Q39.7826 710.894 40.9603 709.335 Q42.1061 707.775 43.1565 703.064 L43.6021 701.059 Q44.9389 694.821 47.3897 692.211 Q49.8086 689.569 54.1691 689.569 Q59.1344 689.569 62.0308 693.516 Q64.9272 697.431 64.9272 704.306 Q64.9272 707.17 64.3543 710.29 Q63.8132 713.377 62.6992 716.814 L56.6518 716.814 Q58.3387 713.568 59.198 710.417 Q60.0256 707.266 60.0256 704.178 Q60.0256 700.041 58.6251 697.813 Q57.1929 695.585 54.6147 695.585 Q52.2276 695.585 50.9545 697.208 Q49.6813 698.799 48.5037 704.242 L48.0262 706.279 Q46.8804 711.722 44.5251 714.141 Q42.138 716.56 38.0002 716.56 Q32.9713 716.56 30.2341 712.995 Q27.4968 709.43 27.4968 702.874 Q27.4968 699.627 27.9743 696.762 Q28.4517 693.898 29.4065 691.479 Z" fill="#000000" fill-rule="nonzero" fill-opacity="1"></path><path clip-path="url(#clip960)" d="M29.4065 657.518 L34.9447 657.518 Q33.6716 660 33.035 662.674 Q32.3984 665.348 32.3984 668.212 Q32.3984 672.573 33.7352 674.769 Q35.072 676.933 37.7456 676.933 Q39.7826 676.933 40.9603 675.374 Q42.1061 673.814 43.1565 669.103 L43.6021 667.098 Q44.9389 660.86 47.3897 658.25 Q49.8086 655.608 54.1691 655.608 Q59.1344 655.608 62.0308 659.555 Q64.9272 663.47 64.9272 670.345 Q64.9272 673.209 64.3543 676.329 Q63.8132 679.416 62.6992 682.853 L56.6518 682.853 Q58.3387 679.607 59.198 676.456 Q60.0256 673.305 60.0256 670.217 Q60.0256 666.08 58.6251 663.852 Q57.1929 661.624 54.6147 661.624 Q52.2276 661.624 50.9545 663.247 Q49.6813 664.838 48.5037 670.281 L48.0262 672.318 Q46.8804 677.761 44.5251 680.18 Q42.138 682.599 38.0002 682.599 Q32.9713 682.599 30.2341 679.034 Q27.4968 675.469 27.4968 668.912 Q27.4968 665.666 27.9743 662.801 Q28.4517 659.937 29.4065 657.518 Z" fill="#000000" fill-rule="nonzero" fill-opacity="1"></path><path clip-path="url(#clip960)" d="M14.5426 647.205 L14.5426 642.113 Q22.0542 637.339 29.2474 634.983 Q36.4406 632.596 43.5384 632.596 Q50.668 632.596 57.8931 634.983 Q65.1182 637.339 72.5979 642.113 L72.5979 647.205 Q65.3091 642.972 58.1159 640.903 Q50.8908 638.803 43.5384 638.803 Q36.186 638.803 29.0246 640.903 Q21.8632 642.972 14.5426 647.205 Z" fill="#000000" fill-rule="nonzero" fill-opacity="1"></path><path clip-path="url(#clip960)" d="M639.599 12.096 L677.839 12.096 L677.839 18.9825 L647.782 18.9825 L647.782 36.8875 L676.583 36.8875 L676.583 43.7741 L647.782 43.7741 L647.782 65.6895 L678.568 65.6895 L678.568 72.576 L639.599 72.576 L639.599 12.096 Z" fill="#000000" fill-rule="nonzero" fill-opacity="1"></path><path clip-path="url(#clip960)" d="M717.984 34.1734 Q716.728 33.4443 715.229 33.1202 Q713.771 32.7556 711.988 32.7556 Q705.669 32.7556 702.266 36.8875 Q698.904 40.9789 698.904 48.6757 L698.904 72.576 L691.41 72.576 L691.41 27.2059 L698.904 27.2059 L698.904 34.2544 Q701.253 30.1225 705.021 28.1376 Q708.788 26.1121 714.176 26.1121 Q714.946 26.1121 715.877 26.2337 Q716.809 26.3147 717.943 26.5172 L717.984 34.1734 Z" fill="#000000" fill-rule="nonzero" fill-opacity="1"></path><path clip-path="url(#clip960)" d="M750.634 34.1734 Q749.378 33.4443 747.879 33.1202 Q746.421 32.7556 744.639 32.7556 Q738.319 32.7556 734.916 36.8875 Q731.554 40.9789 731.554 48.6757 L731.554 72.576 L724.06 72.576 L724.06 27.2059 L731.554 27.2059 L731.554 34.2544 Q733.904 30.1225 737.671 28.1376 Q741.438 26.1121 746.826 26.1121 Q747.596 26.1121 748.528 26.2337 Q749.459 26.3147 750.593 26.5172 L750.634 34.1734 Z" fill="#000000" fill-rule="nonzero" fill-opacity="1"></path><path clip-path="url(#clip960)" d="M774.21 32.4315 Q768.215 32.4315 764.731 37.1306 Q761.247 41.7891 761.247 49.9314 Q761.247 58.0738 764.691 62.7728 Q768.174 67.4314 774.21 67.4314 Q780.165 67.4314 783.649 62.7323 Q787.133 58.0333 787.133 49.9314 Q787.133 41.8701 783.649 37.1711 Q780.165 32.4315 774.21 32.4315 M774.21 26.1121 Q783.932 26.1121 789.482 32.4315 Q795.032 38.7509 795.032 49.9314 Q795.032 61.0714 789.482 67.4314 Q783.932 73.7508 774.21 73.7508 Q764.448 73.7508 758.898 67.4314 Q753.389 61.0714 753.389 49.9314 Q753.389 38.7509 758.898 32.4315 Q764.448 26.1121 774.21 26.1121 Z" fill="#000000" fill-rule="nonzero" fill-opacity="1"></path><path clip-path="url(#clip960)" d="M833.678 34.1734 Q832.422 33.4443 830.923 33.1202 Q829.465 32.7556 827.682 32.7556 Q821.363 32.7556 817.96 36.8875 Q814.598 40.9789 814.598 48.6757 L814.598 72.576 L807.104 72.576 L807.104 27.2059 L814.598 27.2059 L814.598 34.2544 Q816.947 30.1225 820.715 28.1376 Q824.482 26.1121 829.87 26.1121 Q830.639 26.1121 831.571 26.2337 Q832.503 26.3147 833.637 26.5172 L833.678 34.1734 Z" fill="#000000" fill-rule="nonzero" fill-opacity="1"></path><path clip-path="url(#clip960)" d="M876.374 18.8205 L876.374 41.5461 L886.663 41.5461 Q892.375 41.5461 895.494 38.5889 Q898.614 35.6318 898.614 30.163 Q898.614 24.7348 895.494 21.7777 Q892.375 18.8205 886.663 18.8205 L876.374 18.8205 M868.191 12.096 L886.663 12.096 Q896.831 12.096 902.016 16.714 Q907.242 21.2916 907.242 30.163 Q907.242 39.1155 902.016 43.6931 Q896.831 48.2706 886.663 48.2706 L876.374 48.2706 L876.374 72.576 L868.191 72.576 L868.191 12.096 Z" fill="#000000" fill-rule="nonzero" fill-opacity="1"></path><path clip-path="url(#clip960)" d="M917.896 9.54393 L925.349 9.54393 L925.349 72.576 L917.896 72.576 L917.896 9.54393 Z" fill="#000000" fill-rule="nonzero" fill-opacity="1"></path><path clip-path="url(#clip960)" d="M958.526 32.4315 Q952.531 32.4315 949.047 37.1306 Q945.563 41.7891 945.563 49.9314 Q945.563 58.0738 949.007 62.7728 Q952.491 67.4314 958.526 67.4314 Q964.481 67.4314 967.965 62.7323 Q971.449 58.0333 971.449 49.9314 Q971.449 41.8701 967.965 37.1711 Q964.481 32.4315 958.526 32.4315 M958.526 26.1121 Q968.249 26.1121 973.798 32.4315 Q979.348 38.7509 979.348 49.9314 Q979.348 61.0714 973.798 67.4314 Q968.249 73.7508 958.526 73.7508 Q948.764 73.7508 943.214 67.4314 Q937.705 61.0714 937.705 49.9314 Q937.705 38.7509 943.214 32.4315 Q948.764 26.1121 958.526 26.1121 Z" fill="#000000" fill-rule="nonzero" fill-opacity="1"></path><path clip-path="url(#clip960)" d="M999.076 14.324 L999.076 27.2059 L1014.43 27.2059 L1014.43 32.9987 L999.076 32.9987 L999.076 57.6282 Q999.076 63.1779 1000.57 64.7578 Q1002.11 66.3376 1006.77 66.3376 L1014.43 66.3376 L1014.43 72.576 L1006.77 72.576 Q998.144 72.576 994.863 69.3758 Q991.582 66.1351 991.582 57.6282 L991.582 32.9987 L986.113 32.9987 L986.113 27.2059 L991.582 27.2059 L991.582 14.324 L999.076 14.324 Z" fill="#000000" fill-rule="nonzero" fill-opacity="1"></path><path clip-path="url(#clip960)" d="M1068.51 9.62495 Q1063.08 18.942 1060.45 28.0566 Q1057.81 37.1711 1057.81 46.5287 Q1057.81 55.8863 1060.45 65.0818 Q1063.12 74.2369 1068.51 83.5134 L1062.03 83.5134 Q1055.95 73.9938 1052.91 64.7983 Q1049.91 55.6027 1049.91 46.5287 Q1049.91 37.4952 1052.91 28.3401 Q1055.91 19.1851 1062.03 9.62495 L1068.51 9.62495 Z" fill="#000000" fill-rule="nonzero" fill-opacity="1"></path><path clip-path="url(#clip960)" d="M1082.97 9.54393 L1090.42 9.54393 L1090.42 72.576 L1082.97 72.576 L1082.97 9.54393 Z" fill="#000000" fill-rule="nonzero" fill-opacity="1"></path><path clip-path="url(#clip960)" d="M1123.6 32.4315 Q1117.61 32.4315 1114.12 37.1306 Q1110.64 41.7891 1110.64 49.9314 Q1110.64 58.0738 1114.08 62.7728 Q1117.56 67.4314 1123.6 67.4314 Q1129.56 67.4314 1133.04 62.7323 Q1136.52 58.0333 1136.52 49.9314 Q1136.52 41.8701 1133.04 37.1711 Q1129.56 32.4315 1123.6 32.4315 M1123.6 26.1121 Q1133.32 26.1121 1138.87 32.4315 Q1144.42 38.7509 1144.42 49.9314 Q1144.42 61.0714 1138.87 67.4314 Q1133.32 73.7508 1123.6 73.7508 Q1113.84 73.7508 1108.29 67.4314 Q1102.78 61.0714 1102.78 49.9314 Q1102.78 38.7509 1108.29 32.4315 Q1113.84 26.1121 1123.6 26.1121 Z" fill="#000000" fill-rule="nonzero" fill-opacity="1"></path><path clip-path="url(#clip960)" d="M1186.63 49.3643 Q1186.63 41.2625 1183.27 36.8065 Q1179.95 32.3505 1173.91 32.3505 Q1167.92 32.3505 1164.56 36.8065 Q1161.23 41.2625 1161.23 49.3643 Q1161.23 57.4256 1164.56 61.8816 Q1167.92 66.3376 1173.91 66.3376 Q1179.95 66.3376 1183.27 61.8816 Q1186.63 57.4256 1186.63 49.3643 M1194.09 66.9452 Q1194.09 78.5308 1188.94 84.1616 Q1183.8 89.8329 1173.18 89.8329 Q1169.25 89.8329 1165.77 89.2252 Q1162.29 88.6581 1159.01 87.4428 L1159.01 80.1917 Q1162.29 81.9741 1165.49 82.8248 Q1168.69 83.6755 1172.01 83.6755 Q1179.34 83.6755 1182.99 79.8271 Q1186.63 76.0193 1186.63 68.282 L1186.63 64.5957 Q1184.32 68.6061 1180.72 70.5911 Q1177.11 72.576 1172.09 72.576 Q1163.75 72.576 1158.64 66.2161 Q1153.54 59.8562 1153.54 49.3643 Q1153.54 38.832 1158.64 32.472 Q1163.75 26.1121 1172.09 26.1121 Q1177.11 26.1121 1180.72 28.0971 Q1184.32 30.082 1186.63 34.0924 L1186.63 27.2059 L1194.09 27.2059 L1194.09 66.9452 Z" fill="#000000" fill-rule="nonzero" fill-opacity="1"></path><path clip-path="url(#clip960)" d="M1227.34 9.62495 Q1221.92 18.942 1219.28 28.0566 Q1216.65 37.1711 1216.65 46.5287 Q1216.65 55.8863 1219.28 65.0818 Q1221.96 74.2369 1227.34 83.5134 L1220.86 83.5134 Q1214.79 73.9938 1211.75 64.7983 Q1208.75 55.6027 1208.75 46.5287 Q1208.75 37.4952 1211.75 28.3401 Q1214.75 19.1851 1220.86 9.62495 L1227.34 9.62495 Z" fill="#000000" fill-rule="nonzero" fill-opacity="1"></path><path clip-path="url(#clip960)" d="M1242.13 12.096 L1250.31 12.096 L1250.31 65.6895 L1279.76 65.6895 L1279.76 72.576 L1242.13 72.576 L1242.13 12.096 Z" fill="#000000" fill-rule="nonzero" fill-opacity="1"></path><path clip-path="url(#clip960)" d="M1304.15 32.4315 Q1298.15 32.4315 1294.67 37.1306 Q1291.19 41.7891 1291.19 49.9314 Q1291.19 58.0738 1294.63 62.7728 Q1298.11 67.4314 1304.15 67.4314 Q1310.1 67.4314 1313.59 62.7323 Q1317.07 58.0333 1317.07 49.9314 Q1317.07 41.8701 1313.59 37.1711 Q1310.1 32.4315 1304.15 32.4315 M1304.15 26.1121 Q1313.87 26.1121 1319.42 32.4315 Q1324.97 38.7509 1324.97 49.9314 Q1324.97 61.0714 1319.42 67.4314 Q1313.87 73.7508 1304.15 73.7508 Q1294.39 73.7508 1288.84 67.4314 Q1283.33 61.0714 1283.33 49.9314 Q1283.33 38.7509 1288.84 32.4315 Q1294.39 26.1121 1304.15 26.1121 Z" fill="#000000" fill-rule="nonzero" fill-opacity="1"></path><path clip-path="url(#clip960)" d="M1366.25 28.5427 L1366.25 35.5912 Q1363.09 33.9709 1359.69 33.1607 Q1356.28 32.3505 1352.64 32.3505 Q1347.09 32.3505 1344.29 34.0519 Q1341.54 35.7533 1341.54 39.156 Q1341.54 41.7486 1343.52 43.2475 Q1345.51 44.7058 1351.5 46.0426 L1354.06 46.6097 Q1362 48.3111 1365.32 51.4303 Q1368.68 54.509 1368.68 60.0587 Q1368.68 66.3781 1363.66 70.0644 Q1358.67 73.7508 1349.92 73.7508 Q1346.28 73.7508 1342.31 73.0216 Q1338.38 72.3329 1334 70.9151 L1334 63.2184 Q1338.14 65.3654 1342.15 66.4591 Q1346.16 67.5124 1350.09 67.5124 Q1355.35 67.5124 1358.19 65.73 Q1361.02 63.9071 1361.02 60.6258 Q1361.02 57.5877 1358.96 55.9673 Q1356.93 54.3469 1350.01 52.8481 L1347.41 52.2405 Q1340.49 50.7821 1337.41 47.7845 Q1334.33 44.7463 1334.33 39.4801 Q1334.33 33.0797 1338.87 29.5959 Q1343.4 26.1121 1351.75 26.1121 Q1355.88 26.1121 1359.53 26.7198 Q1363.17 27.3274 1366.25 28.5427 Z" fill="#000000" fill-rule="nonzero" fill-opacity="1"></path><path clip-path="url(#clip960)" d="M1409.47 28.5427 L1409.47 35.5912 Q1406.31 33.9709 1402.91 33.1607 Q1399.51 32.3505 1395.86 32.3505 Q1390.31 32.3505 1387.52 34.0519 Q1384.76 35.7533 1384.76 39.156 Q1384.76 41.7486 1386.75 43.2475 Q1388.73 44.7058 1394.73 46.0426 L1397.28 46.6097 Q1405.22 48.3111 1408.54 51.4303 Q1411.9 54.509 1411.9 60.0587 Q1411.9 66.3781 1406.88 70.0644 Q1401.9 73.7508 1393.15 73.7508 Q1389.5 73.7508 1385.53 73.0216 Q1381.6 72.3329 1377.23 70.9151 L1377.23 63.2184 Q1381.36 65.3654 1385.37 66.4591 Q1389.38 67.5124 1393.31 67.5124 Q1398.58 67.5124 1401.41 65.73 Q1404.25 63.9071 1404.25 60.6258 Q1404.25 57.5877 1402.18 55.9673 Q1400.16 54.3469 1393.23 52.8481 L1390.64 52.2405 Q1383.71 50.7821 1380.63 47.7845 Q1377.55 44.7463 1377.55 39.4801 Q1377.55 33.0797 1382.09 29.5959 Q1386.63 26.1121 1394.97 26.1121 Q1399.1 26.1121 1402.75 26.7198 Q1406.39 27.3274 1409.47 28.5427 Z" fill="#000000" fill-rule="nonzero" fill-opacity="1"></path><path clip-path="url(#clip960)" d="M1422.6 9.62495 L1429.08 9.62495 Q1435.16 19.1851 1438.15 28.3401 Q1441.19 37.4952 1441.19 46.5287 Q1441.19 55.6027 1438.15 64.7983 Q1435.16 73.9938 1429.08 83.5134 L1422.6 83.5134 Q1427.99 74.2369 1430.62 65.0818 Q1433.29 55.8863 1433.29 46.5287 Q1433.29 37.1711 1430.62 28.0566 Q1427.99 18.942 1422.6 9.62495 Z" fill="#000000" fill-rule="nonzero" fill-opacity="1"></path><path clip-path="url(#clip960)" d="M1477.16 27.2059 L1485.06 27.2059 L1499.24 65.2844 L1513.42 27.2059 L1521.32 27.2059 L1504.3 72.576 L1494.18 72.576 L1477.16 27.2059 Z" fill="#000000" fill-rule="nonzero" fill-opacity="1"></path><path clip-path="url(#clip960)" d="M1560.53 28.5427 L1560.53 35.5912 Q1557.37 33.9709 1553.97 33.1607 Q1550.57 32.3505 1546.92 32.3505 Q1541.37 32.3505 1538.58 34.0519 Q1535.82 35.7533 1535.82 39.156 Q1535.82 41.7486 1537.81 43.2475 Q1539.79 44.7058 1545.79 46.0426 L1548.34 46.6097 Q1556.28 48.3111 1559.6 51.4303 Q1562.96 54.509 1562.96 60.0587 Q1562.96 66.3781 1557.94 70.0644 Q1552.96 73.7508 1544.21 73.7508 Q1540.56 73.7508 1536.59 73.0216 Q1532.66 72.3329 1528.29 70.9151 L1528.29 63.2184 Q1532.42 65.3654 1536.43 66.4591 Q1540.44 67.5124 1544.37 67.5124 Q1549.63 67.5124 1552.47 65.73 Q1555.31 63.9071 1555.31 60.6258 Q1555.31 57.5877 1553.24 55.9673 Q1551.21 54.3469 1544.29 52.8481 L1541.69 52.2405 Q1534.77 50.7821 1531.69 47.7845 Q1528.61 44.7463 1528.61 39.4801 Q1528.61 33.0797 1533.15 29.5959 Q1537.68 26.1121 1546.03 26.1121 Q1550.16 26.1121 1553.81 26.7198 Q1557.45 27.3274 1560.53 28.5427 Z" fill="#000000" fill-rule="nonzero" fill-opacity="1"></path><path clip-path="url(#clip960)" d="M1601.53 12.096 L1609.71 12.096 L1609.71 72.576 L1601.53 72.576 L1601.53 12.096 Z" fill="#000000" fill-rule="nonzero" fill-opacity="1"></path><path clip-path="url(#clip960)" d="M1633.04 14.324 L1633.04 27.2059 L1648.4 27.2059 L1648.4 32.9987 L1633.04 32.9987 L1633.04 57.6282 Q1633.04 63.1779 1634.54 64.7578 Q1636.08 66.3376 1640.74 66.3376 L1648.4 66.3376 L1648.4 72.576 L1640.74 72.576 Q1632.11 72.576 1628.83 69.3758 Q1625.55 66.1351 1625.55 57.6282 L1625.55 32.9987 L1620.08 32.9987 L1620.08 27.2059 L1625.55 27.2059 L1625.55 14.324 L1633.04 14.324 Z" fill="#000000" fill-rule="nonzero" fill-opacity="1"></path><path clip-path="url(#clip960)" d="M1697.01 48.0275 L1697.01 51.6733 L1662.74 51.6733 Q1663.22 59.3701 1667.35 63.421 Q1671.53 67.4314 1678.94 67.4314 Q1683.23 67.4314 1687.24 66.3781 Q1691.29 65.3249 1695.26 63.2184 L1695.26 70.267 Q1691.25 71.9684 1687.04 72.8596 Q1682.83 73.7508 1678.49 73.7508 Q1667.64 73.7508 1661.28 67.4314 Q1654.96 61.1119 1654.96 50.3365 Q1654.96 39.1965 1660.95 32.6746 Q1666.99 26.1121 1677.2 26.1121 Q1686.35 26.1121 1691.66 32.0264 Q1697.01 37.9003 1697.01 48.0275 M1689.55 45.84 Q1689.47 39.7232 1686.11 36.0774 Q1682.79 32.4315 1677.28 32.4315 Q1671.04 32.4315 1667.27 35.9558 Q1663.55 39.4801 1662.98 45.8805 L1689.55 45.84 Z" fill="#000000" fill-rule="nonzero" fill-opacity="1"></path><path clip-path="url(#clip960)" d="M1735.53 34.1734 Q1734.27 33.4443 1732.78 33.1202 Q1731.32 32.7556 1729.53 32.7556 Q1723.22 32.7556 1719.81 36.8875 Q1716.45 40.9789 1716.45 48.6757 L1716.45 72.576 L1708.96 72.576 L1708.96 27.2059 L1716.45 27.2059 L1716.45 34.2544 Q1718.8 30.1225 1722.57 28.1376 Q1726.33 26.1121 1731.72 26.1121 Q1732.49 26.1121 1733.42 26.2337 Q1734.36 26.3147 1735.49 26.5172 L1735.53 34.1734 Z" fill="#000000" fill-rule="nonzero" fill-opacity="1"></path><path clip-path="url(#clip960)" d="M1763.97 49.7694 Q1754.93 49.7694 1751.45 51.8354 Q1747.97 53.9013 1747.97 58.8839 Q1747.97 62.8538 1750.56 65.2034 Q1753.19 67.5124 1757.69 67.5124 Q1763.89 67.5124 1767.61 63.1374 Q1771.38 58.7219 1771.38 51.4303 L1771.38 49.7694 L1763.97 49.7694 M1778.83 46.6907 L1778.83 72.576 L1771.38 72.576 L1771.38 65.6895 Q1768.83 69.8214 1765.02 71.8063 Q1761.21 73.7508 1755.7 73.7508 Q1748.74 73.7508 1744.6 69.8619 Q1740.51 65.9325 1740.51 59.3701 Q1740.51 51.7138 1745.62 47.825 Q1750.76 43.9361 1760.93 43.9361 L1771.38 43.9361 L1771.38 43.2069 Q1771.38 38.0623 1767.98 35.2672 Q1764.62 32.4315 1758.5 32.4315 Q1754.61 32.4315 1750.92 33.3632 Q1747.24 34.295 1743.83 36.1584 L1743.83 29.2718 Q1747.93 27.692 1751.77 26.9223 Q1755.62 26.1121 1759.27 26.1121 Q1769.11 26.1121 1773.97 31.2163 Q1778.83 36.3204 1778.83 46.6907 Z" fill="#000000" fill-rule="nonzero" fill-opacity="1"></path><path clip-path="url(#clip960)" d="M1801.56 14.324 L1801.56 27.2059 L1816.91 27.2059 L1816.91 32.9987 L1801.56 32.9987 L1801.56 57.6282 Q1801.56 63.1779 1803.06 64.7578 Q1804.6 66.3376 1809.26 66.3376 L1816.91 66.3376 L1816.91 72.576 L1809.26 72.576 Q1800.63 72.576 1797.35 69.3758 Q1794.07 66.1351 1794.07 57.6282 L1794.07 32.9987 L1788.6 32.9987 L1788.6 27.2059 L1794.07 27.2059 L1794.07 14.324 L1801.56 14.324 Z" fill="#000000" fill-rule="nonzero" fill-opacity="1"></path><path clip-path="url(#clip960)" d="M1826.72 27.2059 L1834.17 27.2059 L1834.17 72.576 L1826.72 72.576 L1826.72 27.2059 M1826.72 9.54393 L1834.17 9.54393 L1834.17 18.9825 L1826.72 18.9825 L1826.72 9.54393 Z" fill="#000000" fill-rule="nonzero" fill-opacity="1"></path><path clip-path="url(#clip960)" d="M1867.35 32.4315 Q1861.35 32.4315 1857.87 37.1306 Q1854.38 41.7891 1854.38 49.9314 Q1854.38 58.0738 1857.83 62.7728 Q1861.31 67.4314 1867.35 67.4314 Q1873.3 67.4314 1876.79 62.7323 Q1880.27 58.0333 1880.27 49.9314 Q1880.27 41.8701 1876.79 37.1711 Q1873.3 32.4315 1867.35 32.4315 M1867.35 26.1121 Q1877.07 26.1121 1882.62 32.4315 Q1888.17 38.7509 1888.17 49.9314 Q1888.17 61.0714 1882.62 67.4314 Q1877.07 73.7508 1867.35 73.7508 Q1857.58 73.7508 1852.03 67.4314 Q1846.53 61.0714 1846.53 49.9314 Q1846.53 38.7509 1852.03 32.4315 Q1857.58 26.1121 1867.35 26.1121 Z" fill="#000000" fill-rule="nonzero" fill-opacity="1"></path><path clip-path="url(#clip960)" d="M1938.24 45.1919 L1938.24 72.576 L1930.78 72.576 L1930.78 45.4349 Q1930.78 38.994 1928.27 35.7938 Q1925.76 32.5936 1920.74 32.5936 Q1914.7 32.5936 1911.22 36.4419 Q1907.73 40.2903 1907.73 46.9338 L1907.73 72.576 L1900.24 72.576 L1900.24 27.2059 L1907.73 27.2059 L1907.73 34.2544 Q1910.41 30.163 1914.01 28.1376 Q1917.66 26.1121 1922.4 26.1121 Q1930.22 26.1121 1934.23 30.9732 Q1938.24 35.7938 1938.24 45.1919 Z" fill="#000000" fill-rule="nonzero" fill-opacity="1"></path><path clip-path="url(#clip960)" d="M1951.93 9.62495 L1958.41 9.62495 Q1964.49 19.1851 1967.49 28.3401 Q1970.52 37.4952 1970.52 46.5287 Q1970.52 55.6027 1967.49 64.7983 Q1964.49 73.9938 1958.41 83.5134 L1951.93 83.5134 Q1957.32 74.2369 1959.95 65.0818 Q1962.62 55.8863 1962.62 46.5287 Q1962.62 37.1711 1959.95 28.0566 Q1957.32 18.942 1951.93 9.62495 Z" fill="#000000" fill-rule="nonzero" fill-opacity="1"></path><polyline clip-path="url(#clip962)" style="stroke:#009af9; stroke-linecap:round; stroke-linejoin:round; stroke-width:8; stroke-opacity:1; fill:none" points="316.67,160.256 318.646,424.131 320.623,335.892 322.6,527.225 324.577,679.537 326.553,579.528 328.53,549.903 330.507,646.118 332.484,771.379 334.461,781.969 336.437,714.199 338.414,685.964 340.391,722.538 342.368,794.853 344.345,848.621 346.321,851.508 348.298,830.713 350.275,822.662 352.252,834.429 354.228,852.635 356.205,863.956 358.182,868.838 360.159,876.364 362.136,890.489 364.112,905.126 366.089,911.158 368.066,907.454 370.043,902.292 372.019,903.923 373.996,912.956 375.973,922.849 377.95,926.832 379.927,925.035 381.903,923.758 383.88,928.209 385.857,937.446 387.834,945.726 389.811,948.415 391.787,946.562 393.764,945.015 395.741,946.966 397.718,951.405 399.694,955.3 401.671,957.344 403.648,958.935 405.625,961.695 407.602,965.186 409.578,967.622 411.555,968.364 413.532,968.828 415.509,970.713 417.485,973.96 419.462,976.943 421.439,978.459 423.416,979.034 425.393,980.059 427.369,982.094 429.346,984.462 431.323,986.346 433.3,987.77 435.277,989.303 437.253,991.143 439.23,992.924 441.207,994.377 443.184,995.759 445.16,997.449 447.137,999.365 449.114,1001.1 451.091,1002.51 453.068,1003.94 455.044,1005.68 457.021,1007.58 458.998,1009.27 460.975,1010.7 462.951,1012.14 464.928,1013.76 466.905,1015.48 468.882,1017.13 470.859,1018.73 472.835,1020.38 474.812,1022.08 476.789,1023.72 478.766,1025.3 480.743,1026.92 482.719,1028.61 484.696,1030.3 486.673,1031.95 488.65,1033.59 490.626,1035.27 492.603,1036.95 494.58,1038.61 496.557,1040.27 498.534,1041.95 500.51,1043.64 502.487,1045.3 504.464,1046.97 506.441,1048.67 508.417,1050.37 510.394,1052.04 512.371,1053.7 514.348,1055.37 516.325,1057.06 518.301,1058.74 520.278,1060.4 522.255,1062.07 524.232,1063.73 526.209,1065.39 528.185,1067.03 530.162,1068.68 532.139,1070.32 534.116,1071.94 536.092,1073.56 538.069,1075.17 540.046,1076.77 542.023,1078.36 544,1079.94 545.976,1081.5 547.953,1083.05 549.93,1084.59 551.907,1086.11 553.883,1087.62 555.86,1089.11 557.837,1090.59 559.814,1092.05 561.791,1093.49 563.767,1094.92 565.744,1096.33 567.721,1097.72 569.698,1099.09 571.675,1100.45 573.651,1101.79 575.628,1103.1 577.605,1104.41 579.582,1105.69 581.558,1106.96 583.535,1108.22 585.512,1109.45 587.489,1110.68 589.466,1111.89 591.442,1113.08 593.419,1114.26 595.396,1115.43 597.373,1116.58 599.35,1117.73 601.326,1118.86 603.303,1119.97 605.28,1121.08 607.257,1122.18 609.233,1123.26 611.21,1124.34 613.187,1125.41 615.164,1126.46 617.141,1127.51 619.117,1128.55 621.094,1129.58 623.071,1130.6 625.048,1131.62 627.024,1132.63 629.001,1133.63 630.978,1134.62 632.955,1135.61 634.932,1136.59 636.908,1137.57 638.885,1138.55 640.862,1139.52 642.839,1140.48 644.816,1141.45 646.792,1142.41 648.769,1143.36 650.746,1144.32 652.723,1145.27 654.699,1146.22 656.676,1147.16 658.653,1148.11 660.63,1149.05 662.607,1150 664.583,1150.94 666.56,1151.88 668.537,1152.82 670.514,1153.76 672.49,1154.69 674.467,1155.63 676.444,1156.57 678.421,1157.5 680.398,1158.44 682.374,1159.37 684.351,1160.3 686.328,1161.24 688.305,1162.17 690.282,1163.1 692.258,1164.04 694.235,1164.97 696.212,1165.9 698.189,1166.83 700.165,1167.76 702.142,1168.69 704.119,1169.62 706.096,1170.55 708.073,1171.48 710.049,1172.41 712.026,1173.34 714.003,1174.26 715.98,1175.19 717.956,1176.12 719.933,1177.05 721.91,1177.98 723.887,1178.91 725.864,1179.84 727.84,1180.76 729.817,1181.69 731.794,1182.62 733.771,1183.55 735.748,1184.48 737.724,1185.41 739.701,1186.34 741.678,1187.27 743.655,1188.2 745.631,1189.13 747.608,1190.07 749.585,1191 751.562,1191.93 753.539,1192.87 755.515,1193.8 757.492,1194.74 759.469,1195.67 761.446,1196.61 763.422,1197.54 765.399,1198.48 767.376,1199.42 769.353,1200.35 771.33,1201.29 773.306,1202.22 775.283,1203.15 777.26,1204.09 779.237,1205.02 781.214,1205.94 783.19,1206.87 785.167,1207.79 787.144,1208.71 789.121,1209.63 791.097,1210.55 793.074,1211.46 795.051,1212.36 797.028,1213.27 799.005,1214.17 800.981,1215.06 802.958,1215.96 804.935,1216.84 806.912,1217.73 808.888,1218.61 810.865,1219.49 812.842,1220.36 814.819,1221.24 816.796,1222.11 818.772,1222.97 820.749,1223.84 822.726,1224.7 824.703,1225.56 826.68,1226.41 828.656,1227.27 830.633,1228.12 832.61,1228.97 834.587,1229.82 836.563,1230.66 838.54,1231.51 840.517,1232.35 842.494,1233.18 844.471,1234.02 846.447,1234.85 848.424,1235.68 850.401,1236.51 852.378,1237.34 854.354,1238.16 856.331,1238.98 858.308,1239.8 860.285,1240.62 862.262,1241.43 864.238,1242.24 866.215,1243.05 868.192,1243.85 870.169,1244.66 872.146,1245.46 874.122,1246.26 876.099,1247.05 878.076,1247.84 880.053,1248.63 882.029,1249.42 884.006,1250.2 885.983,1250.99 887.96,1251.76 889.937,1252.54 891.913,1253.31 893.89,1254.08 895.867,1254.85 897.844,1255.61 899.82,1256.37 901.797,1257.1 903.774,1257.74 905.751,1257.83 907.728,1254.99 909.704,1242.02 911.681,1220.62 913.658,1227.3 915.635,1259.84 917.612,1249.06 919.588,1235.78 921.565,1259.83 923.542,1256.36 925.519,1245.46 927.495,1263.58 929.472,1259.07 931.449,1253.09 933.426,1267.12 935.403,1261.09 937.379,1259.47 939.356,1269.7 941.333,1263.6 943.31,1264.67 945.287,1271.72 947.263,1266.58 949.24,1268.71 951.217,1273.63 953.194,1269.69 955.17,1271.88 957.147,1275.58 959.124,1272.72 961.101,1274.47 963.078,1277.58 965.054,1275.66 967.031,1276.69 969.008,1279.51 970.985,1278.49 972.961,1278.76 974.938,1281.27 976.915,1281.19 978.892,1280.9 980.869,1282.84 982.845,1283.63 984.822,1283.22 986.799,1284.33 988.776,1285.67 990.753,1285.66 992.729,1286 994.706,1287.28 996.683,1287.95 998.66,1288.03 1000.64,1288.73 1002.61,1289.78 1004.59,1290.24 1006.57,1290.5 1008.54,1291.24 1010.52,1292.11 1012.5,1292.57 1014.47,1292.92 1016.45,1293.58 1018.43,1294.35 1020.4,1294.89 1022.38,1295.28 1024.36,1295.82 1026.33,1296.51 1028.31,1297.12 1030.29,1297.59 1032.26,1298.04 1034.24,1298.61 1036.22,1299.23 1038.2,1299.79 1040.17,1300.28 1042.15,1300.74 1044.13,1301.26 1046.1,1301.82 1048.08,1302.37 1050.06,1302.89 1052.03,1303.37 1054.01,1303.84 1055.99,1304.33 1057.96,1304.84 1059.94,1305.35 1061.92,1305.86 1063.89,1306.35 1065.87,1306.83 1067.85,1307.29 1069.82,1307.75 1071.8,1308.21 1073.78,1308.67 1075.75,1309.13 1077.73,1309.59 1079.71,1310.05 1081.68,1310.5 1083.66,1310.94 1085.64,1311.37 1087.61,1311.79 1089.59,1312.18 1091.57,1312.53 1093.55,1312.8 1095.52,1312.91 1097.5,1312.69 1099.48,1311.82 1101.45,1309.54 1103.43,1304.53 1105.41,1294.5 1107.38,1278.75 1109.36,1261.17 1111.34,1260.59 1113.31,1284.94 1115.29,1314.2 1117.27,1309.75 1119.24,1289.02 1121.22,1292.7 1123.2,1313.7 1125.17,1315.4 1127.15,1301.17 1129.13,1302.68 1131.1,1317.17 1133.08,1317.06 1135.06,1307.32 1137.03,1310.05 1139.01,1319.81 1140.99,1319.2 1142.96,1312.84 1144.94,1314.55 1146.92,1321.4 1148.9,1321.59 1150.87,1317.26 1152.85,1317.75 1154.83,1322.44 1156.8,1323.91 1158.78,1321.33 1160.76,1320.28 1162.73,1322.95 1164.71,1325.36 1166.69,1324.75 1168.66,1323.23 1170.64,1323.73 1172.62,1325.8 1174.59,1326.94 1176.57,1326.37 1178.55,1325.65 1180.52,1326.14 1182.5,1327.51 1184.48,1328.42 1186.45,1328.35 1188.43,1327.93 1190.41,1328.02 1192.38,1328.76 1194.36,1329.64 1196.34,1330.12 1198.31,1330.13 1200.29,1330.03 1202.27,1330.17 1204.25,1330.62 1206.22,1331.22 1208.2,1331.72 1210.18,1332 1212.15,1332.11 1214.13,1332.18 1216.11,1332.34 1218.08,1332.61 1220.06,1332.99 1222.04,1333.38 1224.01,1333.76 1225.99,1334.07 1227.97,1334.32 1229.94,1334.53 1231.92,1334.71 1233.9,1334.88 1235.87,1335.04 1237.85,1335.2 1239.83,1335.35 1241.8,1335.47 1243.78,1335.55 1245.76,1335.55 1247.73,1335.41 1249.71,1335.06 1251.69,1334.33 1253.66,1332.97 1255.64,1330.51 1257.62,1326.36 1259.59,1319.5 1261.57,1309.79 1263.55,1297.57 1265.53,1289.07 1267.5,1290.36 1269.48,1308.34 1271.46,1330.88 1273.43,1338.49 1275.41,1327.43 1277.39,1316.22 1279.36,1320.4 1281.34,1333.85 1283.32,1339.57 1285.29,1332.76 1287.27,1326.06 1289.25,1329.44 1291.22,1337.79 1293.2,1340.66 1295.18,1336.32 1297.15,1332.22 1299.13,1333.96 1301.11,1339.09 1303.08,1341.91 1305.06,1340.26 1307.04,1337.29 1309.01,1336.76 1310.99,1339.12 1312.97,1342.05 1314.94,1343.07 1316.92,1341.97 1318.9,1340.45 1320.88,1340.11 1322.85,1341.28 1324.83,1342.99 1326.81,1344.13 1328.78,1344.22 1330.76,1343.59 1332.74,1342.95 1334.71,1342.81 1336.69,1343.3 1338.67,1344.15 1340.64,1345 1342.62,1345.58 1344.6,1345.8 1346.57,1345.74 1348.55,1345.54 1350.53,1345.37 1352.5,1345.29 1354.48,1345.35 1356.46,1345.53 1358.43,1345.79 1360.41,1346.1 1362.39,1346.41 1364.36,1346.71 1366.34,1346.98 1368.32,1347.21 1370.29,1347.4 1372.27,1347.55 1374.25,1347.64 1376.23,1347.64 1378.2,1347.53 1380.18,1347.2 1382.16,1346.53 1384.13,1345.23 1386.11,1342.84 1388.09,1338.45 1390.06,1330.92 1392.04,1318.31 1394.02,1300.77 1395.99,1280.62 1397.97,1271.91 1399.95,1285.99 1401.92,1324.38 1403.9,1348.98 1405.88,1334.4 1407.85,1314.13 1409.83,1322.18 1411.81,1345.35 1413.78,1345.41 1415.76,1329.44 1417.74,1330.47 1419.71,1345.89 1421.69,1348.8 1423.67,1338.24 1425.64,1336.04 1427.62,1345.96 1429.6,1351.1 1431.58,1345.33 1433.55,1340.79 1435.53,1344.95 1437.51,1351.19 1439.48,1350.9 1441.46,1346.47 1443.44,1345.38 1445.41,1349.07 1447.39,1352.47 1449.37,1351.83 1451.34,1349.18 1453.32,1348.64 1455.3,1350.81 1457.27,1353.11 1459.25,1353.23 1461.23,1351.8 1463.2,1350.99 1465.18,1351.81 1467.16,1353.39 1469.13,1354.23 1471.11,1353.88 1473.09,1353.11 1475.06,1352.9 1477.04,1353.52 1479.02,1354.44 1480.99,1355.02 1482.97,1355.02 1484.95,1354.68 1486.93,1354.46 1488.9,1354.59 1490.88,1355.03 1492.86,1355.55 1494.83,1355.93 1496.81,1356.08 1498.79,1356.04 1500.76,1355.95 1502.74,1355.92 1504.72,1356 1506.69,1356.19 1508.67,1356.45 1510.65,1356.73 1512.62,1356.98 1514.6,1357.19 1516.58,1357.35 1518.55,1357.47 1520.53,1357.55 1522.51,1357.62 1524.48,1357.67 1526.46,1357.71 1528.44,1357.73 1530.41,1357.71 1532.39,1357.63 1534.37,1357.45 1536.34,1357.1 1538.32,1356.47 1540.3,1355.34 1542.27,1353.38 1544.25,1349.94 1546.23,1344.15 1548.21,1334.5 1550.18,1320.28 1552.16,1301.35 1554.14,1285.01 1556.11,1280.9 1558.09,1303.6 1560.07,1341.12 1562.04,1358.18 1564.02,1340.03 1566,1323.07 1567.97,1335.11 1569.95,1355.92 1571.93,1353.46 1573.9,1338.84 1575.88,1340.49 1577.86,1355.12 1579.83,1358.19 1581.81,1348.45 1583.79,1345.27 1585.76,1353.48 1587.74,1360.15 1589.72,1356.78 1591.69,1350.87 1593.67,1351.71 1595.65,1357.61 1597.62,1360.93 1599.6,1358.58 1601.58,1355.05 1603.56,1355.24 1605.53,1358.69 1607.51,1361.38 1609.49,1360.83 1611.46,1358.66 1613.44,1357.89 1615.42,1359.38 1617.39,1361.48 1619.37,1362.16 1621.35,1361.26 1623.32,1360.22 1625.3,1360.3 1627.28,1361.42 1629.25,1362.52 1631.23,1362.79 1633.21,1362.32 1635.18,1361.79 1637.16,1361.8 1639.14,1362.36 1641.11,1363.06 1643.09,1363.48 1645.07,1363.49 1647.04,1363.26 1649.02,1363.07 1651,1363.1 1652.97,1363.36 1654.95,1363.73 1656.93,1364.08 1658.91,1364.31 1660.88,1364.4 1662.86,1364.39 1664.84,1364.34 1666.81,1364.32 1668.79,1364.35 1670.77,1364.44 1672.74,1364.58 1674.72,1364.75 1676.7,1364.92 1678.67,1365.1 1680.65,1365.26 1682.63,1365.4 1684.6,1365.54 1686.58,1365.65 1688.56,1365.76 1690.53,1365.87 1692.51,1365.97 1694.49,1366.06 1696.46,1366.16 1698.44,1366.25 1700.42,1366.34 1702.39,1366.43 1704.37,1366.52 1706.35,1366.6 1708.32,1366.68 1710.3,1366.75 1712.28,1366.79 1714.26,1366.8 1716.23,1366.71 1718.21,1366.45 1720.19,1365.79 1722.16,1364.3 1724.14,1361 1726.12,1353.88 1728.09,1338.8 1730.07,1309.94 1732.05,1261.27 1734.02,1207.07 1736,1182.27 1737.98,1250.88 1739.95,1355.3 1741.93,1318.67 1743.91,1273.54 1745.88,1337.27 1747.86,1342.55 1749.84,1299.41 1751.81,1342.85 1753.79,1345.15 1755.77,1316.76 1757.74,1352.92 1759.72,1347.47 1761.7,1330.39 1763.67,1359.77 1765.65,1351.85 1767.63,1339.78 1769.6,1362.05 1771.58,1357.98 1773.56,1346.3 1775.54,1359.84 1777.51,1363.86 1779.49,1353.44 1781.47,1356.41 1783.44,1365.77 1785.42,1361.44 1787.4,1356.56 1789.37,1364.48 1791.35,1366.62 1793.33,1360.4 1795.3,1363.46 1797.28,1367.95 1799.26,1364.9 1801.23,1364.05 1803.21,1367.3 1805.19,1367.84 1807.16,1365.63 1809.14,1366.63 1811.12,1369 1813.09,1367.44 1815.07,1366.77 1817.05,1368.95 1819.02,1368.97 1821,1367.89 1822.98,1368.62 1824.95,1369.67 1826.93,1369.38 1828.91,1368.85 1830.89,1369.62 1832.86,1370.32 1834.84,1369.79 1836.82,1369.68 1838.79,1370.37 1840.77,1370.64 1842.75,1370.38 1844.72,1370.37 1846.7,1370.82 1848.68,1371.1 1850.65,1370.91 1852.63,1370.92 1854.61,1371.28 1856.58,1371.47 1858.56,1371.41 1860.54,1371.43 1862.51,1371.64 1864.49,1371.85 1866.47,1371.86 1868.44,1371.85 1870.42,1372 1872.4,1372.19 1874.37,1372.26 1876.35,1372.28 1878.33,1372.36 1880.3,1372.51 1882.28,1372.63 1884.26,1372.68 1886.24,1372.72 1888.21,1372.83 1890.19,1372.95 1892.17,1373.04 1894.14,1373.1 1896.12,1373.16 1898.1,1373.25 1900.07,1373.36 1902.05,1373.45 1904.03,1373.52 1906,1373.58 1907.98,1373.66 1909.96,1373.76 1911.93,1373.85 1913.91,1373.92 1915.89,1373.99 1917.86,1374.06 1919.84,1374.15 1921.82,1374.23 1923.79,1374.31 1925.77,1374.39 1927.75,1374.46 1929.72,1374.53 1931.7,1374.61 1933.68,1374.69 1935.65,1374.77 1937.63,1374.85 1939.61,1374.92 1941.59,1374.99 1943.56,1375.07 1945.54,1375.14 1947.52,1375.22 1949.49,1375.3 1951.47,1375.37 1953.45,1375.45 1955.42,1375.52 1957.4,1375.59 1959.38,1375.67 1961.35,1375.74 1963.33,1375.82 1965.31,1375.89 1967.28,1375.97 1969.26,1376.04 1971.24,1376.11 1973.21,1376.19 1975.19,1376.26 1977.17,1376.33 1979.14,1376.41 1981.12,1376.48 1983.1,1376.55 1985.07,1376.63 1987.05,1376.7 1989.03,1376.77 1991,1376.85 1992.98,1376.92 1994.96,1376.99 1996.93,1377.06 1998.91,1377.14 2000.89,1377.21 2002.87,1377.28 2004.84,1377.35 2006.82,1377.43 2008.8,1377.5 2010.77,1377.57 2012.75,1377.64 2014.73,1377.72 2016.7,1377.79 2018.68,1377.86 2020.66,1377.93 2022.63,1378 2024.61,1378.07 2026.59,1378.14 2028.56,1378.2 2030.54,1378.26 2032.52,1378.31 2034.49,1378.33 2036.47,1378.31 2038.45,1378.2 2040.42,1377.9 2042.4,1377.24 2044.38,1375.8 2046.35,1372.8 2048.33,1366.54 2050.31,1354.11 2052.28,1330.08 2054.26,1291.31 2056.24,1238.47 2058.22,1205.54 2060.19,1227.66 2062.17,1328.48 2064.15,1365.56 2066.12,1299.71 2068.1,1309.18 2070.08,1364.25 2072.05,1337.48 2074.03,1324.86 2076.01,1359.72 2077.98,1354.49 2079.96,1341.27 2081.94,1360.26 2083.91,1365.44 2085.89,1353.95 2087.87,1360.61 2089.84,1371.9 2091.82,1365.23 2093.8,1360.04 2095.77,1371.66 2097.75,1375.4 2099.73,1364.81 2101.7,1367.45 2103.68,1378.07 2105.66,1373.52 2107.63,1368.39 2109.61,1374.77 2111.59,1377.41 2113.57,1374.2 2115.54,1374.08 2117.52,1376.35 2119.5,1377.97 2121.47,1377.16 2123.45,1375.95 2125.43,1378.03 2127.4,1379.77 2129.38,1377.79 2131.36,1377.5 2133.33,1379.85 2135.31,1379.82 2137.29,1378.56 2139.26,1379.24 2141.24,1380.25 2143.22,1380.15 2145.19,1379.88 2147.17,1380.01 2149.15,1380.61 2151.12,1381 2153.1,1380.61 2155.08,1380.51 2157.05,1381.2 2159.03,1381.47 2161.01,1381.1 2162.98,1381.15 2164.96,1381.58 2166.94,1381.74 2168.92,1381.69 2170.89,1381.72 2172.87,1381.83 2174.85,1382.04 2176.82,1382.22 2178.8,1382.18 2180.78,1382.16 2182.75,1382.36 2184.73,1382.57 2186.71,1382.58 2188.68,1382.58 2190.66,1382.69 2192.64,1382.81 2194.61,1382.92 2196.59,1383 2198.57,1383.04 2200.54,1383.08 2202.52,1383.19 2204.5,1383.32 2206.47,1383.38 2208.45,1383.42 2210.43,1383.49 2212.4,1383.58 2214.38,1383.67 2216.36,1383.75 2218.33,1383.82 2220.31,1383.88 2222.29,1383.94 2224.27,1384.02 2226.24,1384.11 2228.22,1384.18 2230.2,1384.25 2232.17,1384.31 2234.15,1384.38 2236.13,1384.45 2238.1,1384.53 2240.08,1384.61 2242.06,1384.68 2244.03,1384.74 2246.01,1384.81 2247.99,1384.88 2249.96,1384.95 2251.94,1385.02 2253.92,1385.09 2255.89,1385.16 2257.87,1385.23 2259.85,1385.3 2261.82,1385.37 2263.8,1385.44 2265.78,1385.51 2267.75,1385.57 2269.73,1385.64 2271.71,1385.71 2273.68,1385.78 2275.66,1385.85 2277.64,1385.92 2279.61,1385.99 2281.59,1386.06 2283.57,1386.12 2285.55,1386.19 2287.52,1386.26 2289.5,1386.33 2291.48,1386.4 2293.45,1386.4 "></polyline>
<path clip-path="url(#clip960)" d="M1769.44 270.476 L2282.91 270.476 L2282.91 166.796 L1769.44 166.796  Z" fill="#ffffff" fill-rule="evenodd" fill-opacity="1"></path>
<polyline clip-path="url(#clip960)" style="stroke:#000000; stroke-linecap:round; stroke-linejoin:round; stroke-width:4; stroke-opacity:1; fill:none" points="1769.44,270.476 2282.91,270.476 2282.91,166.796 1769.44,166.796 1769.44,270.476 "></polyline>
<polyline clip-path="url(#clip960)" style="stroke:#009af9; stroke-linecap:round; stroke-linejoin:round; stroke-width:8; stroke-opacity:1; fill:none" points="1792.72,218.636 1932.41,218.636 "></polyline>
<path clip-path="url(#clip960)" d="M1955.69 201.356 L1984.93 201.356 L1984.93 205.291 L1972.66 205.291 L1972.66 235.916 L1967.96 235.916 L1967.96 205.291 L1955.69 205.291 L1955.69 201.356 Z" fill="#000000" fill-rule="nonzero" fill-opacity="1"></path><path clip-path="url(#clip960)" d="M1997.31 213.971 Q1996.6 213.555 1995.74 213.37 Q1994.91 213.161 1993.89 213.161 Q1990.28 213.161 1988.33 215.522 Q1986.41 217.86 1986.41 222.258 L1986.41 235.916 L1982.13 235.916 L1982.13 209.99 L1986.41 209.99 L1986.41 214.018 Q1987.75 211.657 1989.91 210.522 Q1992.06 209.365 1995.14 209.365 Q1995.58 209.365 1996.11 209.434 Q1996.64 209.481 1997.29 209.596 L1997.31 213.971 Z" fill="#000000" fill-rule="nonzero" fill-opacity="1"></path><path clip-path="url(#clip960)" d="M2013.56 222.883 Q2008.4 222.883 2006.41 224.064 Q2004.42 225.244 2004.42 228.092 Q2004.42 230.36 2005.9 231.703 Q2007.41 233.022 2009.98 233.022 Q2013.52 233.022 2015.65 230.522 Q2017.8 227.999 2017.8 223.832 L2017.8 222.883 L2013.56 222.883 M2022.06 221.124 L2022.06 235.916 L2017.8 235.916 L2017.8 231.981 Q2016.34 234.342 2014.17 235.476 Q2011.99 236.587 2008.84 236.587 Q2004.86 236.587 2002.5 234.365 Q2000.16 232.119 2000.16 228.369 Q2000.16 223.994 2003.08 221.772 Q2006.02 219.55 2011.83 219.55 L2017.8 219.55 L2017.8 219.133 Q2017.8 216.194 2015.86 214.596 Q2013.93 212.976 2010.44 212.976 Q2008.22 212.976 2006.11 213.508 Q2004 214.041 2002.06 215.106 L2002.06 211.17 Q2004.4 210.268 2006.6 209.828 Q2008.8 209.365 2010.88 209.365 Q2016.5 209.365 2019.28 212.282 Q2022.06 215.198 2022.06 221.124 Z" fill="#000000" fill-rule="nonzero" fill-opacity="1"></path><path clip-path="url(#clip960)" d="M2030.83 209.99 L2035.09 209.99 L2035.09 235.916 L2030.83 235.916 L2030.83 209.99 M2030.83 199.897 L2035.09 199.897 L2035.09 205.291 L2030.83 205.291 L2030.83 199.897 Z" fill="#000000" fill-rule="nonzero" fill-opacity="1"></path><path clip-path="url(#clip960)" d="M2065.55 220.268 L2065.55 235.916 L2061.3 235.916 L2061.3 220.407 Q2061.3 216.726 2059.86 214.897 Q2058.42 213.069 2055.55 213.069 Q2052.11 213.069 2050.11 215.268 Q2048.12 217.467 2048.12 221.263 L2048.12 235.916 L2043.84 235.916 L2043.84 209.99 L2048.12 209.99 L2048.12 214.018 Q2049.65 211.68 2051.71 210.522 Q2053.8 209.365 2056.5 209.365 Q2060.97 209.365 2063.26 212.143 Q2065.55 214.897 2065.55 220.268 Z" fill="#000000" fill-rule="nonzero" fill-opacity="1"></path><path clip-path="url(#clip960)" d="M2074.05 209.99 L2078.31 209.99 L2078.31 235.916 L2074.05 235.916 L2074.05 209.99 M2074.05 199.897 L2078.31 199.897 L2078.31 205.291 L2074.05 205.291 L2074.05 199.897 Z" fill="#000000" fill-rule="nonzero" fill-opacity="1"></path><path clip-path="url(#clip960)" d="M2108.77 220.268 L2108.77 235.916 L2104.51 235.916 L2104.51 220.407 Q2104.51 216.726 2103.08 214.897 Q2101.64 213.069 2098.77 213.069 Q2095.32 213.069 2093.33 215.268 Q2091.34 217.467 2091.34 221.263 L2091.34 235.916 L2087.06 235.916 L2087.06 209.99 L2091.34 209.99 L2091.34 214.018 Q2092.87 211.68 2094.93 210.522 Q2097.01 209.365 2099.72 209.365 Q2104.19 209.365 2106.48 212.143 Q2108.77 214.897 2108.77 220.268 Z" fill="#000000" fill-rule="nonzero" fill-opacity="1"></path><path clip-path="url(#clip960)" d="M2134.33 222.652 Q2134.33 218.022 2132.41 215.476 Q2130.51 212.93 2127.06 212.93 Q2123.63 212.93 2121.71 215.476 Q2119.81 218.022 2119.81 222.652 Q2119.81 227.258 2121.71 229.805 Q2123.63 232.351 2127.06 232.351 Q2130.51 232.351 2132.41 229.805 Q2134.33 227.258 2134.33 222.652 M2138.59 232.698 Q2138.59 239.318 2135.65 242.536 Q2132.71 245.777 2126.64 245.777 Q2124.4 245.777 2122.41 245.43 Q2120.42 245.105 2118.54 244.411 L2118.54 240.268 Q2120.42 241.286 2122.24 241.772 Q2124.07 242.258 2125.97 242.258 Q2130.16 242.258 2132.24 240.059 Q2134.33 237.883 2134.33 233.462 L2134.33 231.356 Q2133.01 233.647 2130.95 234.781 Q2128.89 235.916 2126.02 235.916 Q2121.25 235.916 2118.33 232.281 Q2115.42 228.647 2115.42 222.652 Q2115.42 216.633 2118.33 212.999 Q2121.25 209.365 2126.02 209.365 Q2128.89 209.365 2130.95 210.499 Q2133.01 211.633 2134.33 213.925 L2134.33 209.99 L2138.59 209.99 L2138.59 232.698 Z" fill="#000000" fill-rule="nonzero" fill-opacity="1"></path><path clip-path="url(#clip960)" d="M2162.61 201.356 L2167.29 201.356 L2167.29 231.981 L2184.12 231.981 L2184.12 235.916 L2162.61 235.916 L2162.61 201.356 Z" fill="#000000" fill-rule="nonzero" fill-opacity="1"></path><path clip-path="url(#clip960)" d="M2198.05 212.976 Q2194.63 212.976 2192.64 215.661 Q2190.65 218.323 2190.65 222.976 Q2190.65 227.629 2192.61 230.314 Q2194.6 232.976 2198.05 232.976 Q2201.46 232.976 2203.45 230.291 Q2205.44 227.606 2205.44 222.976 Q2205.44 218.37 2203.45 215.684 Q2201.46 212.976 2198.05 212.976 M2198.05 209.365 Q2203.61 209.365 2206.78 212.976 Q2209.95 216.587 2209.95 222.976 Q2209.95 229.342 2206.78 232.976 Q2203.61 236.587 2198.05 236.587 Q2192.48 236.587 2189.3 232.976 Q2186.16 229.342 2186.16 222.976 Q2186.16 216.587 2189.3 212.976 Q2192.48 209.365 2198.05 209.365 Z" fill="#000000" fill-rule="nonzero" fill-opacity="1"></path><path clip-path="url(#clip960)" d="M2233.54 210.754 L2233.54 214.782 Q2231.73 213.856 2229.79 213.393 Q2227.85 212.93 2225.76 212.93 Q2222.59 212.93 2220.99 213.902 Q2219.42 214.874 2219.42 216.819 Q2219.42 218.3 2220.55 219.157 Q2221.69 219.99 2225.11 220.754 L2226.57 221.078 Q2231.11 222.05 2233.01 223.832 Q2234.93 225.592 2234.93 228.763 Q2234.93 232.374 2232.06 234.481 Q2229.21 236.587 2224.21 236.587 Q2222.13 236.587 2219.86 236.17 Q2217.61 235.777 2215.11 234.967 L2215.11 230.569 Q2217.47 231.795 2219.77 232.42 Q2222.06 233.022 2224.3 233.022 Q2227.31 233.022 2228.93 232.004 Q2230.55 230.962 2230.55 229.087 Q2230.55 227.351 2229.37 226.425 Q2228.22 225.499 2224.26 224.643 L2222.78 224.295 Q2218.82 223.462 2217.06 221.749 Q2215.3 220.013 2215.3 217.004 Q2215.3 213.346 2217.89 211.356 Q2220.48 209.365 2225.25 209.365 Q2227.61 209.365 2229.7 209.712 Q2231.78 210.059 2233.54 210.754 Z" fill="#000000" fill-rule="nonzero" fill-opacity="1"></path><path clip-path="url(#clip960)" d="M2258.24 210.754 L2258.24 214.782 Q2256.43 213.856 2254.49 213.393 Q2252.54 212.93 2250.46 212.93 Q2247.29 212.93 2245.69 213.902 Q2244.12 214.874 2244.12 216.819 Q2244.12 218.3 2245.25 219.157 Q2246.39 219.99 2249.81 220.754 L2251.27 221.078 Q2255.81 222.05 2257.71 223.832 Q2259.63 225.592 2259.63 228.763 Q2259.63 232.374 2256.76 234.481 Q2253.91 236.587 2248.91 236.587 Q2246.83 236.587 2244.56 236.17 Q2242.31 235.777 2239.81 234.967 L2239.81 230.569 Q2242.17 231.795 2244.47 232.42 Q2246.76 233.022 2249 233.022 Q2252.01 233.022 2253.63 232.004 Q2255.25 230.962 2255.25 229.087 Q2255.25 227.351 2254.07 226.425 Q2252.91 225.499 2248.96 224.643 L2247.47 224.295 Q2243.52 223.462 2241.76 221.749 Q2240 220.013 2240 217.004 Q2240 213.346 2242.59 211.356 Q2245.18 209.365 2249.95 209.365 Q2252.31 209.365 2254.4 209.712 Q2256.48 210.059 2258.24 210.754 Z" fill="#000000" fill-rule="nonzero" fill-opacity="1"></path></svg>